<?xml version="1.0" encoding="utf-8" standalone="no"?>
<!DOCTYPE svg PUBLIC "-//W3C//DTD SVG 1.1//EN"
  "http://www.w3.org/Graphics/SVG/1.1/DTD/svg11.dtd">
<!-- Created with matplotlib (http://matplotlib.org/) -->
<svg height="432pt" version="1.1" viewBox="0 0 576 432" width="576pt" xmlns="http://www.w3.org/2000/svg" xmlns:xlink="http://www.w3.org/1999/xlink">
 <defs>
  <style type="text/css">
*{stroke-linecap:butt;stroke-linejoin:round;}
  </style>
 </defs>
 <g id="figure_1">
  <g id="patch_1">
   <path d="
M0 432
L576 432
L576 0
L0 0
z
" style="fill:#ffffff;"/>
  </g>
  <g id="axes_1">
   <g id="patch_2">
    <path d="
M72 388.8
L518.4 388.8
L518.4 43.2
L72 43.2
z
" style="fill:#e5e5e5;"/>
   </g>
   <g id="matplotlib.axis_1">
    <g id="xtick_1">
     <g id="line2d_1">
      <path clip-path="url(#p7ff5b81e1d)" d="
M75.3564 388.8
L75.3564 43.2" style="fill:none;stroke:#ffffff;stroke-linecap:square;stroke-width:0.5;"/>
     </g>
     <g id="line2d_2">
      <defs>
       <path d="
M0 0
L0 4" id="m64c3aef5f4" style="stroke:#555555;stroke-width:0.5;"/>
      </defs>
      <g>
       <use style="fill:#555555;stroke:#555555;stroke-width:0.5;" x="75.3563909774" xlink:href="#m64c3aef5f4" y="388.8"/>
      </g>
     </g>
     <g id="line2d_3">
      <defs>
       <path d="
M0 0
L0 -4" id="m91191bb255" style="stroke:#555555;stroke-width:0.5;"/>
      </defs>
      <g>
       <use style="fill:#555555;stroke:#555555;stroke-width:0.5;" x="75.3563909774" xlink:href="#m91191bb255" y="43.2"/>
      </g>
     </g>
     <g id="text_1">
      <!-- $27$ -->
      <defs>
       <path d="
M41.7031 15.4531
L39.9062 15.4531
C38.9062 8.375 38.0938 7.17188 37.7031 6.5625
C37.2031 5.76562 30 5.76562 28.5938 5.76562
L9.40625 5.76562
C13 9.67188 20 16.75 28.5 24.9531
C34.5938 30.7344 41.7031 37.5312 41.7031 47.4219
C41.7031 59.2188 32.2969 66 21.7969 66
C10.7969 66 4.09375 56.3125 4.09375 47.3438
C4.09375 43.4375 7 42.9375 8.20312 42.9375
C9.20312 42.9375 12.2031 43.5469 12.2031 47.0312
C12.2031 50.1094 9.59375 51 8.20312 51
C7.59375 51 7 50.9062 6.59375 50.7031
C8.5 59.2188 14.2969 63.4062 20.4062 63.4062
C29.0938 63.4062 34.7969 56.5156 34.7969 47.4219
C34.7969 38.7344 29.7031 31.25 24 24.75
L4.09375 2.28125
L4.09375 0
L39.2969 0
z
" id="CMR17-50"/>
       <path d="
M45.0938 61.5781
L45.0938 63.7656
L21.5938 63.7656
C9.90625 63.7656 9.70312 65.0781 9.29688 67
L7.5 67
L4.59375 48.3438
L6.40625 48.3438
C6.70312 50.2344 7.40625 55.3125 8.59375 57.2031
C9.20312 58 16.5938 58 18.2969 58
L40.2969 58
L29.2031 41.5781
C21.7969 30.5312 16.7031 15.6094 16.7031 2.57812
C16.7031 1.39062 16.7031 -2 20.2969 -2
C23.9062 -2 23.9062 1.39062 23.9062 2.67188
L23.9062 7.26562
C23.9062 23.5625 26.7031 34.3125 31.2969 41.1875
z
" id="CMR17-55"/>
      </defs>
      <g style="fill:#555555;" transform="translate(71.122208128 402.478656211)scale(0.08 -0.08)">
       <use transform="scale(0.996264009963)" xlink:href="#CMR17-50"/>
       <use transform="translate(45.6904771171 0.0)scale(0.996264009963)" xlink:href="#CMR17-55"/>
      </g>
     </g>
    </g>
    <g id="xtick_2">
     <g id="line2d_4">
      <path clip-path="url(#p7ff5b81e1d)" d="
M95.4947 388.8
L95.4947 43.2" style="fill:none;stroke:#ffffff;stroke-linecap:square;stroke-width:0.5;"/>
     </g>
     <g id="line2d_5">
      <g>
       <use style="fill:#555555;stroke:#555555;stroke-width:0.5;" x="95.4947368421" xlink:href="#m64c3aef5f4" y="388.8"/>
      </g>
     </g>
     <g id="line2d_6">
      <g>
       <use style="fill:#555555;stroke:#555555;stroke-width:0.5;" x="95.4947368421" xlink:href="#m91191bb255" y="43.2"/>
      </g>
     </g>
     <g id="text_2">
      <!-- $44$ -->
      <defs>
       <path d="
M33.5938 64.3281
C33.5938 66.4062 33.5 66.5 31.7031 66.5
L2 19.5938
L2 17
L27.7969 17
L27.7969 7.14062
C27.7969 3.5 27.5938 2.5 20.5938 2.5
L18.7031 2.5
L18.7031 0
C21.9062 0 27.2969 0 30.7031 0
C34.0938 0 39.5 0 42.7031 0
L42.7031 2.5
L40.7969 2.5
C33.7969 2.5 33.5938 3.5 33.5938 7.14062
L33.5938 17
L43.7969 17
L43.7969 19.5938
L33.5938 19.5938
z

M28.0938 57.7656
L28.0938 19.5938
L4 19.5938
z
" id="CMR17-52"/>
      </defs>
      <g style="fill:#555555;" transform="translate(91.2605539926 402.478656211)scale(0.08 -0.08)">
       <use transform="scale(0.996264009963)" xlink:href="#CMR17-52"/>
       <use transform="translate(45.6904771171 0.0)scale(0.996264009963)" xlink:href="#CMR17-52"/>
      </g>
     </g>
    </g>
    <g id="xtick_3">
     <g id="line2d_7">
      <path clip-path="url(#p7ff5b81e1d)" d="
M115.633 388.8
L115.633 43.2" style="fill:none;stroke:#ffffff;stroke-linecap:square;stroke-width:0.5;"/>
     </g>
     <g id="line2d_8">
      <g>
       <use style="fill:#555555;stroke:#555555;stroke-width:0.5;" x="115.633082707" xlink:href="#m64c3aef5f4" y="388.8"/>
      </g>
     </g>
     <g id="line2d_9">
      <g>
       <use style="fill:#555555;stroke:#555555;stroke-width:0.5;" x="115.633082707" xlink:href="#m91191bb255" y="43.2"/>
      </g>
     </g>
     <g id="text_3">
      <!-- $45$ -->
      <defs>
       <path d="
M11.4062 57.6875
C12.4062 57.2812 16.5 56 20.7031 56
C30 56 35.0938 61.0156 38 63.9219
C38 64.7344 38 65.25 37.4062 65.25
C37.2969 65.25 37.0938 65.25 36.2969 64.8281
C32.7969 63.3125 28.7031 62.0781 23.7031 62.0781
C20.7031 62.0781 16.2031 62.5 11.2969 64.7344
C10.2031 65.25 10 65.25 9.90625 65.25
C9.40625 65.25 9.29688 65.1406 9.29688 63.1562
L9.29688 34.2812
C9.29688 32.5 9.29688 32 10.2969 32
C10.7969 32 11 32.2031 11.5 32.9062
C14.7031 37.4844 19.0938 39.4062 24.0938 39.4062
C27.5938 39.4062 35.0938 37.2188 35.0938 20.1406
C35.0938 16.9531 35.0938 11.1719 32.0938 6.57812
C29.5938 2.48438 25.7031 0.390625 21.4062 0.390625
C14.7969 0.390625 8.09375 5 6.29688 12.7188
C6.70312 12.6094 7.5 12.4219 7.90625 12.4219
C9.20312 12.4219 11.7031 13.125 11.7031 16.2188
C11.7031 18.9062 9.79688 20 7.90625 20
C5.59375 20 4.09375 18.5938 4.09375 15.7969
C4.09375 7.09375 11 -2 21.5938 -2
C31.9062 -2 41.7031 6.875 41.7031 19.75
C41.7031 31.7188 33.9062 41 24.2031 41
C19.0938 41 14.7969 39.0938 11.4062 35.4531
z
" id="CMR17-53"/>
      </defs>
      <g style="fill:#555555;" transform="translate(111.398899857 402.478656211)scale(0.08 -0.08)">
       <use transform="scale(0.996264009963)" xlink:href="#CMR17-52"/>
       <use transform="translate(45.6904771171 0.0)scale(0.996264009963)" xlink:href="#CMR17-53"/>
      </g>
     </g>
    </g>
    <g id="xtick_4">
     <g id="line2d_10">
      <path clip-path="url(#p7ff5b81e1d)" d="
M135.771 388.8
L135.771 43.2" style="fill:none;stroke:#ffffff;stroke-linecap:square;stroke-width:0.5;"/>
     </g>
     <g id="line2d_11">
      <g>
       <use style="fill:#555555;stroke:#555555;stroke-width:0.5;" x="135.771428571" xlink:href="#m64c3aef5f4" y="388.8"/>
      </g>
     </g>
     <g id="line2d_12">
      <g>
       <use style="fill:#555555;stroke:#555555;stroke-width:0.5;" x="135.771428571" xlink:href="#m91191bb255" y="43.2"/>
      </g>
     </g>
     <g id="text_4">
      <!-- $26$ -->
      <defs>
       <path d="
M10.5938 34
C10.5938 57.6562 21.7969 63 28.2969 63
C30.4062 63 35.5 62.6406 37.5 59
C35.9062 59 32.9062 59 32.9062 55.5156
C32.9062 52.8281 35.0938 51.9219 36.5 51.9219
C37.4062 51.9219 40.0938 52.3125 40.0938 55.625
C40.0938 61.7812 35.0938 65.2969 28.2031 65.2969
C16.2969 65.2969 3.79688 52.9688 3.79688 31
C3.79688 3.95312 15.0938 -2 23.0938 -2
C32.7969 -2 42 6.67188 42 20.0469
C42 32.5156 33.9062 41.5938 23.7031 41.5938
C17.5938 41.5938 13.0938 37.6094 10.5938 30.625
z

M23.0938 0.390625
C10.7969 0.390625 10.7969 18.75 10.7969 22.4375
C10.7969 29.625 14.2031 40 23.5 40
C25.2031 40 30.0938 40 33.4062 33.125
C35.2031 29.2188 35.2031 25.1406 35.2031 20.1406
C35.2031 14.75 35.2031 10.7812 33.0938 6.78125
C30.9062 2.67188 27.7031 0.390625 23.0938 0.390625" id="CMR17-54"/>
      </defs>
      <g style="fill:#555555;" transform="translate(131.537245722 402.478656211)scale(0.08 -0.08)">
       <use transform="scale(0.996264009963)" xlink:href="#CMR17-50"/>
       <use transform="translate(45.6904771171 0.0)scale(0.996264009963)" xlink:href="#CMR17-54"/>
      </g>
     </g>
    </g>
    <g id="xtick_5">
     <g id="line2d_13">
      <path clip-path="url(#p7ff5b81e1d)" d="
M155.91 388.8
L155.91 43.2" style="fill:none;stroke:#ffffff;stroke-linecap:square;stroke-width:0.5;"/>
     </g>
     <g id="line2d_14">
      <g>
       <use style="fill:#555555;stroke:#555555;stroke-width:0.5;" x="155.909774436" xlink:href="#m64c3aef5f4" y="388.8"/>
      </g>
     </g>
     <g id="line2d_15">
      <g>
       <use style="fill:#555555;stroke:#555555;stroke-width:0.5;" x="155.909774436" xlink:href="#m91191bb255" y="43.2"/>
      </g>
     </g>
     <g id="text_5">
      <!-- $28$ -->
      <defs>
       <path d="
M27.2031 35.375
C33.5 38.5625 39.9062 43.3281 39.9062 50.9844
C39.9062 60.0312 31.0938 65.2969 23 65.2969
C13.9062 65.2969 5.90625 58.7344 5.90625 49.6875
C5.90625 47.2031 6.5 42.9219 10.4062 39.1406
C11.4062 38.1562 15.5938 35.1719 18.2969 33.2812
C13.7969 30.9844 3.29688 25.5312 3.29688 14.5938
C3.29688 4.35938 13.0938 -2 22.7969 -2
C33.5 -2 42.5 5.65625 42.5 15.7969
C42.5 24.8438 36.4062 29.0312 32.4062 31.7031
z

M14.0938 44.125
C13.2969 44.625 9.29688 47.7031 9.29688 52.375
C9.29688 58.4375 15.5938 63 22.7969 63
C30.7031 63 36.5 57.4531 36.5 50.9844
C36.5 41.7344 26.0938 36.4688 25.5938 36.4688
C25.5 36.4688 25.4062 36.4688 24.5938 37.0781
z

M32.5 23.7344
C34 22.6406 38.7969 19.375 38.7969 13.2969
C38.7969 5.95312 31.4062 0.390625 23 0.390625
C13.9062 0.390625 7 6.84375 7 14.6875
C7 22.5469 13.0938 29.0938 20 32.1875
z
" id="CMR17-56"/>
      </defs>
      <g style="fill:#555555;" transform="translate(151.675591587 402.478656211)scale(0.08 -0.08)">
       <use transform="scale(0.996264009963)" xlink:href="#CMR17-50"/>
       <use transform="translate(45.6904771171 0.0)scale(0.996264009963)" xlink:href="#CMR17-56"/>
      </g>
     </g>
    </g>
    <g id="xtick_6">
     <g id="line2d_16">
      <path clip-path="url(#p7ff5b81e1d)" d="
M176.048 388.8
L176.048 43.2" style="fill:none;stroke:#ffffff;stroke-linecap:square;stroke-width:0.5;"/>
     </g>
     <g id="line2d_17">
      <g>
       <use style="fill:#555555;stroke:#555555;stroke-width:0.5;" x="176.048120301" xlink:href="#m64c3aef5f4" y="388.8"/>
      </g>
     </g>
     <g id="line2d_18">
      <g>
       <use style="fill:#555555;stroke:#555555;stroke-width:0.5;" x="176.048120301" xlink:href="#m91191bb255" y="43.2"/>
      </g>
     </g>
     <g id="text_6">
      <!-- $30$ -->
      <defs>
       <path d="
M22.0938 33.7031
C31 33.7031 34.9062 25.9688 34.9062 17.0312
C34.9062 5 28.5 0.390625 22.7031 0.390625
C17.4062 0.390625 8.79688 3.03125 6.09375 10.8281
C6.59375 10.625 7.09375 10.625 7.59375 10.625
C10 10.625 11.7969 12.2188 11.7969 14.8125
C11.7969 17.7031 9.59375 19 7.59375 19
C5.90625 19 3.29688 18.2031 3.29688 14.4688
C3.29688 5.23438 12.2969 -2 22.9062 -2
C34 -2 42.5 6.71875 42.5 16.9531
C42.5 26.6719 34.5 33.6875 25 34.7969
C32.5938 36.375 39.9062 43.0625 39.9062 52.0156
C39.9062 59.6875 32 65.2969 23 65.2969
C13.9062 65.2969 5.90625 59.8281 5.90625 52.0156
C5.90625 48.5938 8.5 48 9.79688 48
C11.9062 48 13.7031 49.2969 13.7031 51.8906
C13.7031 54.4688 11.9062 55.7656 9.79688 55.7656
C9.40625 55.7656 8.90625 55.7656 8.5 55.5625
C11.4062 61.8594 19.2969 63 22.7969 63
C26.2969 63 32.9062 61.3281 32.9062 51.875
C32.9062 49.1094 32.5 44.1875 29.0938 39.8438
C26.0938 36 22.7031 36 19.4062 35.5938
C18.9062 35.5938 16.5938 35.5938 16.2031 35.5938
C15.5 35.4844 15.0938 35.3906 15.0938 34.5938
C15.0938 33.8125 15.2031 33.7031 17.2031 33.7031
z
" id="CMR17-51"/>
       <path d="
M42 31.6406
C42 37.75 41.9062 48.125 37.7031 56.1094
C34 63.1094 28.0938 65.5938 22.9062 65.5938
C18.0938 65.5938 12 63.4062 8.20312 56.2031
C4.20312 48.7188 3.79688 39.4375 3.79688 31.6406
C3.79688 25.9531 3.90625 17.2812 7 9.67188
C11.2969 -0.609375 19 -2 22.9062 -2
C27.5 -2 34.5 -0.109375 38.5938 9.375
C41.5938 16.2812 42 24.3594 42 31.6406
M22.9062 -0.40625
C16.5 -0.40625 12.7031 5.07812 11.2969 12.6875
C10.2031 18.5625 10.2031 27.1562 10.2031 32.75
C10.2031 40.4375 10.2031 46.8281 11.5 52.9219
C13.4062 61.3906 19 64 22.9062 64
C27 64 32.2969 61.2969 34.2031 53.125
C35.5 47.4375 35.5938 40.7344 35.5938 32.75
C35.5938 26.25 35.5938 18.2656 34.4062 12.375
C32.2969 1.48438 26.4062 -0.40625 22.9062 -0.40625" id="CMR17-48"/>
      </defs>
      <g style="fill:#555555;" transform="translate(171.813937451 402.478656211)scale(0.08 -0.08)">
       <use transform="scale(0.996264009963)" xlink:href="#CMR17-51"/>
       <use transform="translate(45.6904771171 0.0)scale(0.996264009963)" xlink:href="#CMR17-48"/>
      </g>
     </g>
    </g>
    <g id="xtick_7">
     <g id="line2d_19">
      <path clip-path="url(#p7ff5b81e1d)" d="
M196.186 388.8
L196.186 43.2" style="fill:none;stroke:#ffffff;stroke-linecap:square;stroke-width:0.5;"/>
     </g>
     <g id="line2d_20">
      <g>
       <use style="fill:#555555;stroke:#555555;stroke-width:0.5;" x="196.186466165" xlink:href="#m64c3aef5f4" y="388.8"/>
      </g>
     </g>
     <g id="line2d_21">
      <g>
       <use style="fill:#555555;stroke:#555555;stroke-width:0.5;" x="196.186466165" xlink:href="#m91191bb255" y="43.2"/>
      </g>
     </g>
     <g id="text_7">
      <!-- $31$ -->
      <defs>
       <path d="
M26.5938 63.3125
C26.5938 65.4062 26.5 65.5 25.0938 65.5
C21.2031 61.1875 15.2969 59.7969 9.70312 59.7969
C9.40625 59.7969 8.90625 59.7969 8.79688 59.6094
C8.70312 59.3906 8.70312 59.1719 8.70312 57
C11.7969 57 17 57.5938 21 59.9844
L21 7.20312
C21 3.6875 20.7969 2.5 12.2031 2.5
L9.20312 2.5
L9.20312 0
C14 0 19 0 23.7969 0
C28.5938 0 33.5938 0 38.4062 0
L38.4062 2.5
L35.4062 2.5
C26.7969 2.5 26.5938 3.59375 26.5938 7.15625
z
" id="CMR17-49"/>
      </defs>
      <g style="fill:#555555;" transform="translate(191.952283316 402.478656211)scale(0.08 -0.08)">
       <use transform="scale(0.996264009963)" xlink:href="#CMR17-51"/>
       <use transform="translate(45.6904771171 0.0)scale(0.996264009963)" xlink:href="#CMR17-49"/>
      </g>
     </g>
    </g>
    <g id="xtick_8">
     <g id="line2d_22">
      <path clip-path="url(#p7ff5b81e1d)" d="
M216.325 388.8
L216.325 43.2" style="fill:none;stroke:#ffffff;stroke-linecap:square;stroke-width:0.5;"/>
     </g>
     <g id="line2d_23">
      <g>
       <use style="fill:#555555;stroke:#555555;stroke-width:0.5;" x="216.32481203" xlink:href="#m64c3aef5f4" y="388.8"/>
      </g>
     </g>
     <g id="line2d_24">
      <g>
       <use style="fill:#555555;stroke:#555555;stroke-width:0.5;" x="216.32481203" xlink:href="#m91191bb255" y="43.2"/>
      </g>
     </g>
     <g id="text_8">
      <!-- $38$ -->
      <g style="fill:#555555;" transform="translate(212.090629181 402.478656211)scale(0.08 -0.08)">
       <use transform="scale(0.996264009963)" xlink:href="#CMR17-51"/>
       <use transform="translate(45.6904771171 0.0)scale(0.996264009963)" xlink:href="#CMR17-56"/>
      </g>
     </g>
    </g>
    <g id="xtick_9">
     <g id="line2d_25">
      <path clip-path="url(#p7ff5b81e1d)" d="
M236.463 388.8
L236.463 43.2" style="fill:none;stroke:#ffffff;stroke-linecap:square;stroke-width:0.5;"/>
     </g>
     <g id="line2d_26">
      <g>
       <use style="fill:#555555;stroke:#555555;stroke-width:0.5;" x="236.463157895" xlink:href="#m64c3aef5f4" y="388.8"/>
      </g>
     </g>
     <g id="line2d_27">
      <g>
       <use style="fill:#555555;stroke:#555555;stroke-width:0.5;" x="236.463157895" xlink:href="#m91191bb255" y="43.2"/>
      </g>
     </g>
     <g id="text_9">
      <!-- $42$ -->
      <g style="fill:#555555;" transform="translate(232.228975045 402.478656211)scale(0.08 -0.08)">
       <use transform="scale(0.996264009963)" xlink:href="#CMR17-52"/>
       <use transform="translate(45.6904771171 0.0)scale(0.996264009963)" xlink:href="#CMR17-50"/>
      </g>
     </g>
    </g>
    <g id="xtick_10">
     <g id="line2d_28">
      <path clip-path="url(#p7ff5b81e1d)" d="
M256.602 388.8
L256.602 43.2" style="fill:none;stroke:#ffffff;stroke-linecap:square;stroke-width:0.5;"/>
     </g>
     <g id="line2d_29">
      <g>
       <use style="fill:#555555;stroke:#555555;stroke-width:0.5;" x="256.601503759" xlink:href="#m64c3aef5f4" y="388.8"/>
      </g>
     </g>
     <g id="line2d_30">
      <g>
       <use style="fill:#555555;stroke:#555555;stroke-width:0.5;" x="256.601503759" xlink:href="#m91191bb255" y="43.2"/>
      </g>
     </g>
     <g id="text_10">
      <!-- $43$ -->
      <g style="fill:#555555;" transform="translate(252.36732091 402.478656211)scale(0.08 -0.08)">
       <use transform="scale(0.996264009963)" xlink:href="#CMR17-52"/>
       <use transform="translate(45.6904771171 0.0)scale(0.996264009963)" xlink:href="#CMR17-51"/>
      </g>
     </g>
    </g>
    <g id="xtick_11">
     <g id="line2d_31">
      <path clip-path="url(#p7ff5b81e1d)" d="
M276.74 388.8
L276.74 43.2" style="fill:none;stroke:#ffffff;stroke-linecap:square;stroke-width:0.5;"/>
     </g>
     <g id="line2d_32">
      <g>
       <use style="fill:#555555;stroke:#555555;stroke-width:0.5;" x="276.739849624" xlink:href="#m64c3aef5f4" y="388.8"/>
      </g>
     </g>
     <g id="line2d_33">
      <g>
       <use style="fill:#555555;stroke:#555555;stroke-width:0.5;" x="276.739849624" xlink:href="#m91191bb255" y="43.2"/>
      </g>
     </g>
     <g id="text_11">
      <!-- $32$ -->
      <g style="fill:#555555;" transform="translate(272.505666775 402.478656211)scale(0.08 -0.08)">
       <use transform="scale(0.996264009963)" xlink:href="#CMR17-51"/>
       <use transform="translate(45.6904771171 0.0)scale(0.996264009963)" xlink:href="#CMR17-50"/>
      </g>
     </g>
    </g>
    <g id="xtick_12">
     <g id="line2d_34">
      <path clip-path="url(#p7ff5b81e1d)" d="
M296.878 388.8
L296.878 43.2" style="fill:none;stroke:#ffffff;stroke-linecap:square;stroke-width:0.5;"/>
     </g>
     <g id="line2d_35">
      <g>
       <use style="fill:#555555;stroke:#555555;stroke-width:0.5;" x="296.878195489" xlink:href="#m64c3aef5f4" y="388.8"/>
      </g>
     </g>
     <g id="line2d_36">
      <g>
       <use style="fill:#555555;stroke:#555555;stroke-width:0.5;" x="296.878195489" xlink:href="#m91191bb255" y="43.2"/>
      </g>
     </g>
     <g id="text_12">
      <!-- $46$ -->
      <g style="fill:#555555;" transform="translate(292.644012639 402.478656211)scale(0.08 -0.08)">
       <use transform="scale(0.996264009963)" xlink:href="#CMR17-52"/>
       <use transform="translate(45.6904771171 0.0)scale(0.996264009963)" xlink:href="#CMR17-54"/>
      </g>
     </g>
    </g>
    <g id="xtick_13">
     <g id="line2d_37">
      <path clip-path="url(#p7ff5b81e1d)" d="
M317.017 388.8
L317.017 43.2" style="fill:none;stroke:#ffffff;stroke-linecap:square;stroke-width:0.5;"/>
     </g>
     <g id="line2d_38">
      <g>
       <use style="fill:#555555;stroke:#555555;stroke-width:0.5;" x="317.016541353" xlink:href="#m64c3aef5f4" y="388.8"/>
      </g>
     </g>
     <g id="line2d_39">
      <g>
       <use style="fill:#555555;stroke:#555555;stroke-width:0.5;" x="317.016541353" xlink:href="#m91191bb255" y="43.2"/>
      </g>
     </g>
     <g id="text_13">
      <!-- $29$ -->
      <defs>
       <path d="
M35.2031 29.125
C35.2031 7.25 26.0938 0.484375 18.5938 0.484375
C16.2969 0.484375 10.7031 0.484375 8.40625 4.59375
C11 4.1875 12.9062 5.57812 12.9062 8.09375
C12.9062 10.8125 10.7031 11.7031 9.29688 11.7031
C8.40625 11.7031 5.70312 11.2969 5.70312 7.90625
C5.70312 1.10938 11.5938 -2 18.7969 -2
C30.2969 -2 42 10.5312 42 32.3906
C42 59.6406 30.7969 65.2969 23.2031 65.2969
C13.2969 65.2969 3.79688 56.6875 3.79688 43.4062
C3.79688 31.1094 11.9062 22 22.0938 22
C30.5 22 34.2031 29.7344 35.2031 33
z

M22.2969 23.5938
C19.5938 23.5938 15.7969 24.0938 12.7031 30.0312
C10.5938 33.8906 10.5938 38.4531 10.5938 43.2969
C10.5938 49.1562 10.5938 53.2031 13.4062 57.5625
C14.7969 59.6406 17.4062 63 23.2031 63
C35 63 35 45.0781 35 41.125
C35 34.0938 31.7969 23.5938 22.2969 23.5938" id="CMR17-57"/>
      </defs>
      <g style="fill:#555555;" transform="translate(312.782358504 402.478656211)scale(0.08 -0.08)">
       <use transform="scale(0.996264009963)" xlink:href="#CMR17-50"/>
       <use transform="translate(45.6904771171 0.0)scale(0.996264009963)" xlink:href="#CMR17-57"/>
      </g>
     </g>
    </g>
    <g id="xtick_14">
     <g id="line2d_40">
      <path clip-path="url(#p7ff5b81e1d)" d="
M337.155 388.8
L337.155 43.2" style="fill:none;stroke:#ffffff;stroke-linecap:square;stroke-width:0.5;"/>
     </g>
     <g id="line2d_41">
      <g>
       <use style="fill:#555555;stroke:#555555;stroke-width:0.5;" x="337.154887218" xlink:href="#m64c3aef5f4" y="388.8"/>
      </g>
     </g>
     <g id="line2d_42">
      <g>
       <use style="fill:#555555;stroke:#555555;stroke-width:0.5;" x="337.154887218" xlink:href="#m91191bb255" y="43.2"/>
      </g>
     </g>
     <g id="text_14">
      <!-- $33$ -->
      <g style="fill:#555555;" transform="translate(332.920704369 402.478656211)scale(0.08 -0.08)">
       <use transform="scale(0.996264009963)" xlink:href="#CMR17-51"/>
       <use transform="translate(45.6904771171 0.0)scale(0.996264009963)" xlink:href="#CMR17-51"/>
      </g>
     </g>
    </g>
    <g id="xtick_15">
     <g id="line2d_43">
      <path clip-path="url(#p7ff5b81e1d)" d="
M357.293 388.8
L357.293 43.2" style="fill:none;stroke:#ffffff;stroke-linecap:square;stroke-width:0.5;"/>
     </g>
     <g id="line2d_44">
      <g>
       <use style="fill:#555555;stroke:#555555;stroke-width:0.5;" x="357.293233083" xlink:href="#m64c3aef5f4" y="388.8"/>
      </g>
     </g>
     <g id="line2d_45">
      <g>
       <use style="fill:#555555;stroke:#555555;stroke-width:0.5;" x="357.293233083" xlink:href="#m91191bb255" y="43.2"/>
      </g>
     </g>
     <g id="text_15">
      <!-- $34$ -->
      <g style="fill:#555555;" transform="translate(353.059050233 402.478656211)scale(0.08 -0.08)">
       <use transform="scale(0.996264009963)" xlink:href="#CMR17-51"/>
       <use transform="translate(45.6904771171 0.0)scale(0.996264009963)" xlink:href="#CMR17-52"/>
      </g>
     </g>
    </g>
    <g id="xtick_16">
     <g id="line2d_46">
      <path clip-path="url(#p7ff5b81e1d)" d="
M377.432 388.8
L377.432 43.2" style="fill:none;stroke:#ffffff;stroke-linecap:square;stroke-width:0.5;"/>
     </g>
     <g id="line2d_47">
      <g>
       <use style="fill:#555555;stroke:#555555;stroke-width:0.5;" x="377.431578947" xlink:href="#m64c3aef5f4" y="388.8"/>
      </g>
     </g>
     <g id="line2d_48">
      <g>
       <use style="fill:#555555;stroke:#555555;stroke-width:0.5;" x="377.431578947" xlink:href="#m91191bb255" y="43.2"/>
      </g>
     </g>
     <g id="text_16">
      <!-- $35$ -->
      <g style="fill:#555555;" transform="translate(373.197396098 402.478656211)scale(0.08 -0.08)">
       <use transform="scale(0.996264009963)" xlink:href="#CMR17-51"/>
       <use transform="translate(45.6904771171 0.0)scale(0.996264009963)" xlink:href="#CMR17-53"/>
      </g>
     </g>
    </g>
    <g id="xtick_17">
     <g id="line2d_49">
      <path clip-path="url(#p7ff5b81e1d)" d="
M397.57 388.8
L397.57 43.2" style="fill:none;stroke:#ffffff;stroke-linecap:square;stroke-width:0.5;"/>
     </g>
     <g id="line2d_50">
      <g>
       <use style="fill:#555555;stroke:#555555;stroke-width:0.5;" x="397.569924812" xlink:href="#m64c3aef5f4" y="388.8"/>
      </g>
     </g>
     <g id="line2d_51">
      <g>
       <use style="fill:#555555;stroke:#555555;stroke-width:0.5;" x="397.569924812" xlink:href="#m91191bb255" y="43.2"/>
      </g>
     </g>
     <g id="text_17">
      <!-- $36$ -->
      <g style="fill:#555555;" transform="translate(393.335741963 402.478656211)scale(0.08 -0.08)">
       <use transform="scale(0.996264009963)" xlink:href="#CMR17-51"/>
       <use transform="translate(45.6904771171 0.0)scale(0.996264009963)" xlink:href="#CMR17-54"/>
      </g>
     </g>
    </g>
    <g id="xtick_18">
     <g id="line2d_52">
      <path clip-path="url(#p7ff5b81e1d)" d="
M417.708 388.8
L417.708 43.2" style="fill:none;stroke:#ffffff;stroke-linecap:square;stroke-width:0.5;"/>
     </g>
     <g id="line2d_53">
      <g>
       <use style="fill:#555555;stroke:#555555;stroke-width:0.5;" x="417.708270677" xlink:href="#m64c3aef5f4" y="388.8"/>
      </g>
     </g>
     <g id="line2d_54">
      <g>
       <use style="fill:#555555;stroke:#555555;stroke-width:0.5;" x="417.708270677" xlink:href="#m91191bb255" y="43.2"/>
      </g>
     </g>
     <g id="text_18">
      <!-- $37$ -->
      <g style="fill:#555555;" transform="translate(413.474087827 402.478656211)scale(0.08 -0.08)">
       <use transform="scale(0.996264009963)" xlink:href="#CMR17-51"/>
       <use transform="translate(45.6904771171 0.0)scale(0.996264009963)" xlink:href="#CMR17-55"/>
      </g>
     </g>
    </g>
    <g id="xtick_19">
     <g id="line2d_55">
      <path clip-path="url(#p7ff5b81e1d)" d="
M437.847 388.8
L437.847 43.2" style="fill:none;stroke:#ffffff;stroke-linecap:square;stroke-width:0.5;"/>
     </g>
     <g id="line2d_56">
      <g>
       <use style="fill:#555555;stroke:#555555;stroke-width:0.5;" x="437.846616541" xlink:href="#m64c3aef5f4" y="388.8"/>
      </g>
     </g>
     <g id="line2d_57">
      <g>
       <use style="fill:#555555;stroke:#555555;stroke-width:0.5;" x="437.846616541" xlink:href="#m91191bb255" y="43.2"/>
      </g>
     </g>
     <g id="text_19">
      <!-- $39$ -->
      <g style="fill:#555555;" transform="translate(433.612433692 402.478656211)scale(0.08 -0.08)">
       <use transform="scale(0.996264009963)" xlink:href="#CMR17-51"/>
       <use transform="translate(45.6904771171 0.0)scale(0.996264009963)" xlink:href="#CMR17-57"/>
      </g>
     </g>
    </g>
    <g id="xtick_20">
     <g id="line2d_58">
      <path clip-path="url(#p7ff5b81e1d)" d="
M457.985 388.8
L457.985 43.2" style="fill:none;stroke:#ffffff;stroke-linecap:square;stroke-width:0.5;"/>
     </g>
     <g id="line2d_59">
      <g>
       <use style="fill:#555555;stroke:#555555;stroke-width:0.5;" x="457.984962406" xlink:href="#m64c3aef5f4" y="388.8"/>
      </g>
     </g>
     <g id="line2d_60">
      <g>
       <use style="fill:#555555;stroke:#555555;stroke-width:0.5;" x="457.984962406" xlink:href="#m91191bb255" y="43.2"/>
      </g>
     </g>
     <g id="text_20">
      <!-- $40$ -->
      <g style="fill:#555555;" transform="translate(453.750779557 402.478656211)scale(0.08 -0.08)">
       <use transform="scale(0.996264009963)" xlink:href="#CMR17-52"/>
       <use transform="translate(45.6904771171 0.0)scale(0.996264009963)" xlink:href="#CMR17-48"/>
      </g>
     </g>
    </g>
    <g id="xtick_21">
     <g id="line2d_61">
      <path clip-path="url(#p7ff5b81e1d)" d="
M478.123 388.8
L478.123 43.2" style="fill:none;stroke:#ffffff;stroke-linecap:square;stroke-width:0.5;"/>
     </g>
     <g id="line2d_62">
      <g>
       <use style="fill:#555555;stroke:#555555;stroke-width:0.5;" x="478.123308271" xlink:href="#m64c3aef5f4" y="388.8"/>
      </g>
     </g>
     <g id="line2d_63">
      <g>
       <use style="fill:#555555;stroke:#555555;stroke-width:0.5;" x="478.123308271" xlink:href="#m91191bb255" y="43.2"/>
      </g>
     </g>
     <g id="text_21">
      <!-- $41$ -->
      <g style="fill:#555555;" transform="translate(473.889125421 402.478656211)scale(0.08 -0.08)">
       <use transform="scale(0.996264009963)" xlink:href="#CMR17-52"/>
       <use transform="translate(45.6904771171 0.0)scale(0.996264009963)" xlink:href="#CMR17-49"/>
      </g>
     </g>
    </g>
    <g id="xtick_22">
     <g id="line2d_64">
      <path clip-path="url(#p7ff5b81e1d)" d="
M498.262 388.8
L498.262 43.2" style="fill:none;stroke:#ffffff;stroke-linecap:square;stroke-width:0.5;"/>
     </g>
     <g id="line2d_65">
      <g>
       <use style="fill:#555555;stroke:#555555;stroke-width:0.5;" x="498.261654135" xlink:href="#m64c3aef5f4" y="388.8"/>
      </g>
     </g>
     <g id="line2d_66">
      <g>
       <use style="fill:#555555;stroke:#555555;stroke-width:0.5;" x="498.261654135" xlink:href="#m91191bb255" y="43.2"/>
      </g>
     </g>
     <g id="text_22">
      <!-- $AVG$ -->
      <defs>
       <path d="
M74.5938 69.1094
C74.5938 70 73.9062 70 73.7031 70
C73.5 70 73.0938 70 72.2969 69
L65.4062 60.75
C64.9062 61.5469 62.9062 65.0312 59 67.3281
C54.7031 70 50.4062 70 48.9062 70
C27.5 70 5 48.3594 5 24.9219
C5 8.53125 16.4062 -2 31.4062 -2
C38.5938 -2 47.7031 0.375 52.7031 6.64062
C53.7969 2.875 56 0.1875 56.7031 0.1875
C57.2031 0.1875 57.2969 0.5 57.4062 0.5
C57.5 0.6875 58.2969 4.17188 58.7969 5.95312
L60.4062 12.2969
C61.2031 15.5625 61.5938 16.9688 62.2969 19.9375
C63.2969 23.7031 63.5 24 69 24
C69.4062 24 70.5938 24 70.5938 25.9688
C70.5938 27 69.5938 27 69.2969 27
C67.5938 27 65.7031 27 63.9062 27
L58.5 27
C54.2969 27 49.9062 27 45.7969 27
C44.9062 27 43.7031 27 43.7031 25.0781
C43.7031 24 44.5 24 44.5 24
L47 24
C54.9062 24 54.9062 23.2031 54.9062 21.7344
C54.9062 21.625 53 11.6562 51.0938 8.70312
C47.2969 3.15625 39.4062 0.890625 33.5 0.890625
C25.7969 0.890625 13.2969 4.875 13.2969 22.0312
C13.2969 28.6875 15.7031 43.875 25.4062 55.0938
C31.7031 62.25 41 67.1094 49.7969 67.1094
C61.5938 67.1094 65.7969 57.0781 65.7969 47.9375
C65.7969 46.3594 65.4062 44.1719 65.4062 42.7812
C65.4062 41.8906 66.4062 41.8906 66.7031 41.8906
C67.7969 41.8906 67.9062 41.9844 68.2969 43.7656
z
" id="CMMI12-71"/>
       <path d="
M17 10.7969
C13.5 4.90625 10.0938 2.90625 5.29688 2.90625
C4.20312 2.90625 3.40625 2.90625 3.40625 1.04688
C3.40625 0.421875 3.90625 0 4.59375 0
C6.40625 0 10.9062 0 12.7031 0
C15.5938 0 18.7969 0 21.5938 0
C22.2031 0 23.4062 0 23.4062 1.90625
C23.4062 2.8125 22.5938 2.90625 22 2.90625
C19.7031 3.10938 17.7969 3.89062 17.7969 6.21875
C17.7969 7.59375 18.4062 8.67188 19.7031 10.8281
L27.2969 23.1094
L52.7969 23.1094
C52.9062 22.2344 52.9062 21.4375 53 20.5469
C53.2969 17.9844 54.5 7.73438 54.5 5.875
C54.5 2.90625 49.4062 2.90625 47.7969 2.90625
C46.7031 2.90625 45.5938 2.90625 45.5938 1.09375
C45.5938 0 46.5 0 47.0938 0
C48.7969 0 50.7969 0 52.5 0
L58.2031 0
C64.2969 0 68.7031 0 68.7969 0
C69.5 0 70.5938 0 70.5938 1.90625
C70.5938 2.90625 69.7031 2.90625 68.2031 2.90625
C62.7031 2.90625 62.5938 3.8125 62.2969 6.78125
L56.2031 68.8125
C56 70.7969 55.5938 71 54.5 71
C53.5 71 52.9062 70.7969 52 69.2969
z

M29 26
L49.0938 59.6719
L52.5 26
z
" id="CMMI12-65"/>
       <path d="
M61.9062 56.7188
C65.2969 62.1094 68.4062 64.5 73.5 64.9062
C74.5 65 75.2969 65 75.2969 66.7344
C75.2969 67.125 75.0938 67.7031 74.2031 67.7031
C72.4062 67.7031 68.0938 67.7031 66.2969 67.7031
C63.4062 67.7031 60.4062 67.7031 57.5938 67.7031
C56.7969 67.7031 55.7969 67.7031 55.7969 65.9375
C55.7969 65.0938 56.7031 65 57.0938 65
C60.7969 64.7031 61.2031 62.9062 61.2031 61.7031
C61.2031 60.1875 59.7969 57.8906 59.7031 57.7969
L28.2969 7.98438
L21.2969 61.8125
C21.2969 65 26.5 65 27.5938 65
C29.0938 65 30 65 30 66.7656
C30 67.7031 28.9062 67.7031 28.5938 67.7031
C26.9062 67.7031 24.9062 67.7031 23.2031 67.7031
L17.5938 67.7031
C10.2969 67.7031 7.29688 67.7031 7.20312 67.7031
C6.59375 67.7031 5.40625 67.7031 5.40625 66.0156
C5.40625 65 6.09375 65 7.70312 65
C12.7969 65 13.0938 64.0938 13.4062 61.6094
L21.4062 -0.109375
C21.7031 -2.20312 21.7031 -2.5 23.0938 -2.5
C24.2969 -2.5 24.7969 -2.20312 25.7969 -0.609375
z
" id="CMMI12-86"/>
      </defs>
      <g style="fill:#555555;" transform="translate(488.384113613 402.478656211)scale(0.08 -0.08)">
       <use transform="scale(0.996264009963)" xlink:href="#CMMI12-65"/>
       <use transform="translate(73.1278852983 0.0)scale(0.996264009963)" xlink:href="#CMMI12-86"/>
       <use transform="translate(151.675206015 0.0)scale(0.996264009963)" xlink:href="#CMMI12-71"/>
      </g>
     </g>
    </g>
    <g id="text_23">
     <!-- $\mathrm{Query IDs}$ -->
     <defs>
      <path d="
M5.20312 68
L5.20312 65.4062
C12.0938 65.4062 13.2031 65.4062 13.2031 60.9375
L13.2031 7.0625
C13.2031 2.59375 12.0938 2.59375 5.20312 2.59375
L5.20312 0
L37 0
C53.0938 0 66 14.7344 66 33.4531
C66 52.2812 53.2969 68 37 68
z

M23.7969 2.59375
C19.7969 2.59375 19.5938 3.07812 19.5938 6.46875
L19.5938 61.5312
C19.5938 64.9219 19.7969 65.4062 23.7969 65.4062
L35 65.4062
C43.2969 65.4062 58.5938 60.5312 58.5938 33.4531
C58.5938 19.4062 54.5 13.7344 52.5938 11.0469
C50.2031 7.96875 44.5 2.59375 35 2.59375
z
" id="CMR17-68"/>
      <path d="
M47.2969 1.48438
C59.2031 6.54688 67.2969 19.4531 67.2969 34.3594
C67.2969 54.7031 52.5938 70 36 70
C19 70 4.59375 54.5 4.59375 34.3594
C4.59375 14.5 19 -1 36 -1
C38.2969 -1 41.5 -0.703125 45.2969 0.59375
C47 -11.6719 48.0938 -19 56.7031 -19
C67.2969 -19 67.7969 -3.32812 67.7969 -0.515625
C67.7969 0.5 67.7969 1.1875 67.0938 1.1875
C66.5938 1.1875 66.5 0.5 66.5 0.296875
C65.7969 -9.42188 60.4062 -11.4375 57.2031 -11.4375
C51.2969 -11.4375 49.2031 -6.07812 47.2969 1.48438
M30.5938 1.57812
C20.2031 4.85938 12 15.875 12 34.3438
C12 57.9844 25.0938 68.2031 35.9062 68.2031
C47.0938 68.2031 59.9062 57.5938 59.9062 34.3438
C59.9062 17.5625 53.2031 8.23438 46.5 3.96875
C45 9.04688 42.5938 15 36.0938 15
C31.2969 15 28.5938 10.8125 28.5938 7.04688
C28.5938 4.76562 29.5 2.875 30.5938 1.57812
M44.9062 3.07812
C40.9062 0.890625 37.7031 0.890625 36 0.890625
C31.5 0.890625 30.2031 4.92188 30.2031 7.09375
C30.2031 10.1562 32.2969 13.4062 36.0938 13.4062
C42.5 13.4062 44.0938 7.75 44.9062 3.07812" id="CMR17-81"/>
      <path d="
M39 34.3281
C41.5 40.4062 46 40.4062 47.4062 40.4062
L47.4062 43
C45.5 43 43 43 41.0938 43
C39 43 35.7031 43 33.7031 43.0938
L33.7031 40.5
C37.5 40.2031 37.5938 37.4062 37.5938 36.6094
C37.5938 35.625 37.4062 35.125 36.9062 33.9219
L26 7.01562
L14.0938 36.0312
C13.5938 37.2188 13.5938 37.9062 13.5938 38.0156
C13.5938 40.2031 15.9062 40.4062 18.2969 40.4062
L18.2969 43.0938
C15.9062 43 11.5938 43 9.09375 43
C6.40625 43 3.20312 43 1 43.0938
L1 40.4062
C6.40625 40.4062 7 39.9062 8.29688 36.7188
L23.2031 0.234375
C18.7031 -11.5312 16.0938 -18.4062 9.79688 -18.4062
C8.70312 -18.4062 6.20312 -18.1094 4.40625 -16.3125
C6.70312 -16.1094 7.70312 -14.7188 7.70312 -13.0156
C7.70312 -11.3281 6.5 -9.82812 4.5 -9.82812
C2.29688 -9.82812 1.20312 -11.3281 1.20312 -13.125
C1.20312 -17.1094 5.29688 -20 9.79688 -20
C15.5938 -20 19.2031 -14.4062 21.2031 -9.4375
z
" id="CMR17-121"/>
      <path d="
M29.4062 42.0781
L29.4062 39.5
C35.2969 39.5 36.2031 38.8906 36.2031 34.1562
L36.2031 16.125
C36.2031 7.8125 31.7031 0.59375 24.2969 0.59375
C16.0938 0.59375 15.4062 5.4375 15.4062 10.5938
L15.4062 43.1719
L3.29688 42.0781
L3.29688 39.5
C7.29688 39.5 10 39.5 10.0938 35.5312
L10.0938 16.5312
C10.0938 9.89062 10.0938 5.64062 12.7031 2.85938
C14 1.57812 16.5 -1 23.7031 -1
C32.2031 -1 35.5 6.35938 36.2969 8.5
L36.4062 8.5
L36.4062 -0.984375
L48.2969 -0.984375
L48.2969 2
C42.4062 2 41.5 2.59375 41.5 7.39062
L41.5 43.1719
z
" id="CMR17-117"/>
      <path d="
M15 23.3906
C15 33 19.0938 42 26.5938 42
C27.2969 42 28 41.9062 28.7031 41.5938
C28.7031 41.5938 26.5 40.8906 26.5 38.3125
C26.5 35.9062 28.4062 34.9062 29.9062 34.9062
C31.0938 34.9062 33.2969 35.6094 33.2969 38.4062
C33.2969 41.6094 30.0938 43.5938 26.7031 43.5938
C19.0938 43.5938 15.7969 36.2031 14.7969 32.7031
L14.7031 32.7031
L14.7031 43.5938
L3.09375 42.5
L3.09375 39.9062
C9 39.9062 9.90625 39.2969 9.90625 34.5
L9.90625 6.6875
C9.90625 2.875 9.5 2.39062 3.09375 2.39062
L3.09375 -0.203125
C5.5 0 10.0938 0 12.7031 0
C15.5938 0 20.7031 0 23.4062 -0.203125
L23.4062 2.39062
C16.2031 2.39062 15 2.39062 15 6.875
z
" id="CMR17-114"/>
      <path d="
M30.9062 42.1094
C30.9062 43.9062 30.7969 44 30.2031 44
C29.7969 44 29.7031 43.9062 28.5 42.4219
C28.2031 42.0156 27.2969 41.0156 27 40.625
C23.7969 44 19.2969 44 17.5938 44
C6.5 44 2.5 38.1719 2.5 32.375
C2.5 23.3438 12.7031 21.25 15.5938 20.6406
C21.9062 19.3438 24.0938 18.9375 26.2031 17.125
C27.5 15.9375 29.7031 13.7344 29.7031 10.125
C29.7031 5.90625 27.2969 0.5 18.0938 0.5
C9.40625 0.5 6.29688 7.0625 4.5 15.8281
C4.20312 17.2188 4.20312 17.3281 3.40625 17.3281
C2.59375 17.3281 2.5 17.2188 2.5 15.2344
L2.5 0.890625
C2.5 -0.890625 2.59375 -1 3.20312 -1
C3.70312 -1 3.79688 -0.890625 4.29688 -0.09375
C4.90625 0.796875 6.40625 3.1875 7 4.1875
C9 1.54688 12.5 -1 18.0938 -1
C28 -1 33.2969 4.40625 33.2969 12.2344
C33.2969 17.3438 30.5938 20.0625 29.2969 21.25
C26.2969 24.375 22.7969 25.0625 18.5938 25.8594
C13.0938 27.0781 6.09375 28.4688 6.09375 34.5938
C6.09375 37.1875 7.5 42.7188 17.5938 42.7188
C28.2969 42.7188 28.9062 32.75 29.0938 29.5625
C29.2031 29.0781 29.7031 28.9688 30 28.9688
C30.9062 28.9688 30.9062 29.2812 30.9062 30.9688
z
" id="CMR17-115"/>
      <path d="
M38.0938 23
C38.5 23.4062 38.5 23.6094 38.5 24.625
C38.5 34.9688 33.0938 44 21.7031 44
C11.0938 44 2.70312 33.8906 2.70312 21.6094
C2.70312 8.60938 12.2031 -1 22.7969 -1
C34 -1 38.4062 9.46875 38.4062 11.5469
C38.4062 12.25 37.7969 12.25 37.5938 12.25
C36.9062 12.25 36.7969 12.0469 36.4062 10.875
C34.2031 4.14062 28.7031 0.796875 23.5 0.796875
C19.2031 0.796875 14.9062 3.17188 12.2031 7.5
C9.09375 12.5469 9.09375 18.375 9.09375 23
z

M9.20312 24.5
C9.90625 39.1406 17.5938 42.4062 21.5938 42.4062
C28.4062 42.4062 33 35.8906 33.0938 24.5
z
" id="CMR17-101"/>
      <path d="
M19.7031 61.0156
C19.7031 65.5 20.9062 65.5 28.0938 65.5
L28.0938 68
C24.9062 68 19.7969 68 16.4062 68
C13 68 7.90625 68 4.70312 68
L4.70312 65.5
C11.9062 65.5 13.0938 65.5 13.0938 61.0156
L13.0938 6.98438
C13.0938 2.5 11.9062 2.5 4.70312 2.5
L4.70312 0
C7.90625 0 13 0 16.4062 0
C19.7969 0 24.9062 0 28.0938 0
L28.0938 2.5
C20.9062 2.5 19.7031 2.5 19.7031 6.98438
z
" id="CMR17-73"/>
     </defs>
     <g style="fill:#555555;" transform="translate(277.360389141 414.85489546)scale(0.08 -0.08)">
      <use transform="scale(0.996264009963)" xlink:href="#CMR17-81"/>
      <use transform="translate(71.7147884155 0.0)scale(0.996264009963)" xlink:href="#CMR17-117"/>
      <use transform="translate(122.610158196 0.0)scale(0.996264009963)" xlink:href="#CMR17-101"/>
      <use transform="translate(163.095818659 0.0)scale(0.996264009963)" xlink:href="#CMR17-114"/>
      <use transform="translate(198.376586458 0.0)scale(0.996264009963)" xlink:href="#CMR17-121"/>
      <use transform="translate(246.669502306 0.0)scale(0.996264009963)" xlink:href="#CMR17-73"/>
      <use transform="translate(279.307911494 0.0)scale(0.996264009963)" xlink:href="#CMR17-68"/>
      <use transform="translate(349.701467398 0.0)scale(0.996264009963)" xlink:href="#CMR17-115"/>
     </g>
    </g>
   </g>
   <g id="matplotlib.axis_2">
    <g id="ytick_1">
     <g id="line2d_67">
      <path clip-path="url(#p7ff5b81e1d)" d="
M72 388.8
L518.4 388.8" style="fill:none;stroke:#ffffff;stroke-linecap:square;stroke-width:0.5;"/>
     </g>
     <g id="line2d_68">
      <defs>
       <path d="
M0 0
L-4 0" id="mf591f037a3" style="stroke:#555555;stroke-width:0.5;"/>
      </defs>
      <g>
       <use style="fill:#555555;stroke:#555555;stroke-width:0.5;" x="72.0" xlink:href="#mf591f037a3" y="388.8"/>
      </g>
     </g>
     <g id="line2d_69">
      <defs>
       <path d="
M0 0
L4 0" id="m9430d3eee0" style="stroke:#555555;stroke-width:0.5;"/>
      </defs>
      <g>
       <use style="fill:#555555;stroke:#555555;stroke-width:0.5;" x="518.4" xlink:href="#m9430d3eee0" y="388.8"/>
      </g>
     </g>
     <g id="text_24">
      <!-- $0.00$ -->
      <defs>
       <path d="
M18.4062 4.79688
C18.4062 7.6875 16 9.67188 13.5938 9.67188
C10.7031 9.67188 8.70312 7.28125 8.70312 4.89062
C8.70312 2 11.0938 0 13.5 0
C16.4062 0 18.4062 2.39062 18.4062 4.79688" id="CMMI12-58"/>
      </defs>
      <g style="fill:#555555;" transform="translate(48.9451276463 390.790536586)scale(0.08 -0.08)">
       <use transform="scale(0.996264009963)" xlink:href="#CMR17-48"/>
       <use transform="translate(45.6904771171 0.0)scale(0.996264009963)" xlink:href="#CMMI12-58"/>
       <use transform="translate(72.7876542069 0.0)scale(0.996264009963)" xlink:href="#CMR17-48"/>
       <use transform="translate(118.478131324 0.0)scale(0.996264009963)" xlink:href="#CMR17-48"/>
      </g>
     </g>
    </g>
    <g id="ytick_2">
     <g id="line2d_70">
      <path clip-path="url(#p7ff5b81e1d)" d="
M72 319.68
L518.4 319.68" style="fill:none;stroke:#ffffff;stroke-linecap:square;stroke-width:0.5;"/>
     </g>
     <g id="line2d_71">
      <g>
       <use style="fill:#555555;stroke:#555555;stroke-width:0.5;" x="72.0" xlink:href="#mf591f037a3" y="319.68"/>
      </g>
     </g>
     <g id="line2d_72">
      <g>
       <use style="fill:#555555;stroke:#555555;stroke-width:0.5;" x="518.4" xlink:href="#m9430d3eee0" y="319.68"/>
      </g>
     </g>
     <g id="text_25">
      <!-- $0.05$ -->
      <g style="fill:#555555;" transform="translate(48.9451276463 321.670536586)scale(0.08 -0.08)">
       <use transform="scale(0.996264009963)" xlink:href="#CMR17-48"/>
       <use transform="translate(45.6904771171 0.0)scale(0.996264009963)" xlink:href="#CMMI12-58"/>
       <use transform="translate(72.7876542069 0.0)scale(0.996264009963)" xlink:href="#CMR17-48"/>
       <use transform="translate(118.478131324 0.0)scale(0.996264009963)" xlink:href="#CMR17-53"/>
      </g>
     </g>
    </g>
    <g id="ytick_3">
     <g id="line2d_73">
      <path clip-path="url(#p7ff5b81e1d)" d="
M72 250.56
L518.4 250.56" style="fill:none;stroke:#ffffff;stroke-linecap:square;stroke-width:0.5;"/>
     </g>
     <g id="line2d_74">
      <g>
       <use style="fill:#555555;stroke:#555555;stroke-width:0.5;" x="72.0" xlink:href="#mf591f037a3" y="250.56"/>
      </g>
     </g>
     <g id="line2d_75">
      <g>
       <use style="fill:#555555;stroke:#555555;stroke-width:0.5;" x="518.4" xlink:href="#m9430d3eee0" y="250.56"/>
      </g>
     </g>
     <g id="text_26">
      <!-- $0.10$ -->
      <g style="fill:#555555;" transform="translate(48.9451276463 252.550536586)scale(0.08 -0.08)">
       <use transform="scale(0.996264009963)" xlink:href="#CMR17-48"/>
       <use transform="translate(45.6904771171 0.0)scale(0.996264009963)" xlink:href="#CMMI12-58"/>
       <use transform="translate(72.7876542069 0.0)scale(0.996264009963)" xlink:href="#CMR17-49"/>
       <use transform="translate(118.478131324 0.0)scale(0.996264009963)" xlink:href="#CMR17-48"/>
      </g>
     </g>
    </g>
    <g id="ytick_4">
     <g id="line2d_76">
      <path clip-path="url(#p7ff5b81e1d)" d="
M72 181.44
L518.4 181.44" style="fill:none;stroke:#ffffff;stroke-linecap:square;stroke-width:0.5;"/>
     </g>
     <g id="line2d_77">
      <g>
       <use style="fill:#555555;stroke:#555555;stroke-width:0.5;" x="72.0" xlink:href="#mf591f037a3" y="181.44"/>
      </g>
     </g>
     <g id="line2d_78">
      <g>
       <use style="fill:#555555;stroke:#555555;stroke-width:0.5;" x="518.4" xlink:href="#m9430d3eee0" y="181.44"/>
      </g>
     </g>
     <g id="text_27">
      <!-- $0.15$ -->
      <g style="fill:#555555;" transform="translate(48.9451276463 183.430536586)scale(0.08 -0.08)">
       <use transform="scale(0.996264009963)" xlink:href="#CMR17-48"/>
       <use transform="translate(45.6904771171 0.0)scale(0.996264009963)" xlink:href="#CMMI12-58"/>
       <use transform="translate(72.7876542069 0.0)scale(0.996264009963)" xlink:href="#CMR17-49"/>
       <use transform="translate(118.478131324 0.0)scale(0.996264009963)" xlink:href="#CMR17-53"/>
      </g>
     </g>
    </g>
    <g id="ytick_5">
     <g id="line2d_79">
      <path clip-path="url(#p7ff5b81e1d)" d="
M72 112.32
L518.4 112.32" style="fill:none;stroke:#ffffff;stroke-linecap:square;stroke-width:0.5;"/>
     </g>
     <g id="line2d_80">
      <g>
       <use style="fill:#555555;stroke:#555555;stroke-width:0.5;" x="72.0" xlink:href="#mf591f037a3" y="112.32"/>
      </g>
     </g>
     <g id="line2d_81">
      <g>
       <use style="fill:#555555;stroke:#555555;stroke-width:0.5;" x="518.4" xlink:href="#m9430d3eee0" y="112.32"/>
      </g>
     </g>
     <g id="text_28">
      <!-- $0.20$ -->
      <g style="fill:#555555;" transform="translate(48.9451276463 114.310536586)scale(0.08 -0.08)">
       <use transform="scale(0.996264009963)" xlink:href="#CMR17-48"/>
       <use transform="translate(45.6904771171 0.0)scale(0.996264009963)" xlink:href="#CMMI12-58"/>
       <use transform="translate(72.7876542069 0.0)scale(0.996264009963)" xlink:href="#CMR17-50"/>
       <use transform="translate(118.478131324 0.0)scale(0.996264009963)" xlink:href="#CMR17-48"/>
      </g>
     </g>
    </g>
    <g id="ytick_6">
     <g id="line2d_82">
      <path clip-path="url(#p7ff5b81e1d)" d="
M72 43.2
L518.4 43.2" style="fill:none;stroke:#ffffff;stroke-linecap:square;stroke-width:0.5;"/>
     </g>
     <g id="line2d_83">
      <g>
       <use style="fill:#555555;stroke:#555555;stroke-width:0.5;" x="72.0" xlink:href="#mf591f037a3" y="43.2"/>
      </g>
     </g>
     <g id="line2d_84">
      <g>
       <use style="fill:#555555;stroke:#555555;stroke-width:0.5;" x="518.4" xlink:href="#m9430d3eee0" y="43.2"/>
      </g>
     </g>
     <g id="text_29">
      <!-- $0.25$ -->
      <g style="fill:#555555;" transform="translate(48.9451276463 45.1905365864)scale(0.08 -0.08)">
       <use transform="scale(0.996264009963)" xlink:href="#CMR17-48"/>
       <use transform="translate(45.6904771171 0.0)scale(0.996264009963)" xlink:href="#CMMI12-58"/>
       <use transform="translate(72.7876542069 0.0)scale(0.996264009963)" xlink:href="#CMR17-50"/>
       <use transform="translate(118.478131324 0.0)scale(0.996264009963)" xlink:href="#CMR17-53"/>
      </g>
     </g>
    </g>
    <g id="text_30">
     <!-- $\mathrm{nE[Latency Gain]}$ -->
     <defs>
      <path d="
M60.7031 25.0781
L58.9062 25.0781
C56.7031 10.5156 55.4062 2.59375 37.7969 2.59375
L23.9062 2.59375
C19.9062 2.59375 19.7031 3.07812 19.7031 6.46875
L19.7031 34
L29.0938 34
C38.5 34 39.4062 30.5625 39.4062 22.125
L41.2031 22.125
L41.2031 48
L39.4062 48
C39.4062 39.9219 38.5 36.5938 29.0938 36.5938
L19.7031 36.5938
L19.7031 61.1406
C19.7031 64.5 19.9062 65 23.9062 65
L37.5938 65
C53.0938 65 54.9062 58.8594 56.2969 45.6562
L58.0938 45.6562
L55.7031 67.5781
L5.09375 67.5781
L5.09375 65
C12 65 13.0938 65 13.0938 60.5312
L13.0938 7.04688
C13.0938 2.59375 12 2.59375 5.09375 2.59375
L5.09375 0
L57.0938 0
z
" id="CMR17-69"/>
      <path d="
M15.0938 40
L29.0938 40
L29.0938 42.5781
L15.0938 42.5781
L15.0938 61
L13.2969 61
C13.0938 50.7031 9.59375 41.6875 1.09375 41.6875
L1.09375 40
L9.79688 40
L9.79688 12.0469
C9.79688 10.1562 9.79688 -1 21.4062 -1
C27.2969 -1 30.7031 4.78125 30.7031 12.1406
L30.7031 17.8125
L28.9062 17.8125
L28.9062 12.2344
C28.9062 5.375 26.2031 0.796875 22 0.796875
C19.0938 0.796875 15.0938 2.78125 15.0938 11.8438
z
" id="CMR17-116"/>
      <path d="
M36 25.8281
C36 32.375 36 35.8438 31.7969 39.7344
C28.0938 43 23.7969 44 20.4062 44
C12.5 44 6.79688 37.6094 6.79688 30.7969
C6.79688 27 9.79688 27 10.4062 27
C11.7031 27 14 27.7812 14 30.5312
C14 33 12.0938 34.0781 10.4062 34.0781
C10 34.0781 9.5 33.9688 9.20312 33.875
C11.2969 40.5 16.7031 42.4062 20.2031 42.4062
C25.2031 42.4062 30.7031 37.9531 30.7031 29.4531
L30.7031 25
C24.7969 25 17.7031 24.2031 12.0938 21.2031
C5.79688 17.7031 4 12.7031 4 8.90625
C4 1.20312 13 -1 18.2969 -1
C23.7969 -1 28.9062 2.17188 31.0938 7.98438
C31.2969 3.64062 34.0938 -0.28125 38.5 -0.28125
C40.5938 -0.28125 45.9062 1.09375 45.9062 8.85938
L45.9062 14.375
L44.0938 14.375
L44.0938 8.78125
C44.0938 2.78125 41.4062 2 40.0938 2
C36 2 36 7.15625 36 11.5312
z

M30.7031 13.5938
C30.7031 4.95312 24.5 0.59375 19 0.59375
C14 0.59375 10.0938 4.29688 10.0938 8.90625
C10.0938 11.8906 11.4062 17.1875 17.2031 20.3906
C22 23.0938 27.5 23.5 30.7031 23.5
z
" id="CMR17-97"/>
      <path d="
M23.5 -25
L23.5 -21.5156
L14.0938 -21.5156
L14.0938 71
L23.5 71
L23.5 74.4844
L10.5938 74.4844
L10.5938 -25
z
" id="CMR17-91"/>
      <path d="
M14.2969 74.4844
L1.40625 74.4844
L1.40625 71
L10.7969 71
L10.7969 -21.5156
L1.40625 -21.5156
L1.40625 -25
L14.2969 -25
z
" id="CMR17-93"/>
      <path d="
M34.9062 35
C33 35 30.2031 35 30.2031 31.5156
C30.2031 28.7188 32.5 27.9219 33.7969 27.9219
C34.5 27.9219 37.4062 28.2344 37.4062 31.625
C37.4062 38.5469 30.5938 43.7969 22.9062 43.7969
C12.2969 43.7969 3.29688 34.0312 3.29688 21.2969
C3.29688 8.0625 12.7031 -1 22.9062 -1
C35.2969 -1 38.4062 10.5938 38.4062 11.6875
C38.4062 12.0938 38.2969 12.3906 37.5938 12.3906
C36.9062 12.3906 36.7969 12.2969 36.4062 10.9844
C33.7969 2.8125 28.0938 0.796875 23.7969 0.796875
C17.4062 0.796875 9.70312 6.67188 9.70312 21.3906
C9.70312 36.5312 17.0938 42 23 42
C26.9062 42 32.7031 40.2031 34.9062 35" id="CMR17-99"/>
      <path d="
M54.2031 25.2344
L52.4062 25.2344
C51.5938 15.3594 50.2969 2.59375 33.2031 2.59375
L23.9062 2.59375
C19.9062 2.59375 19.7031 3.07812 19.7031 6.46875
L19.7031 60.9062
C19.7031 64.5156 19.9062 65.5 27.5 65.5
L29.7031 65.5
L29.7031 68
C25.5938 68 20.7969 68 16.7031 68
C13.5938 68 8 68 5.09375 68
L5.09375 65.5
C12 65.5 13.0938 65.5 13.0938 61.0312
L13.0938 7.0625
C13.0938 2.59375 12 2.59375 5.09375 2.59375
L5.09375 0
L51.7969 0
z
" id="CMR17-76"/>
      <path d="
M15.5 61.0781
C15.5 63.2656 13.7031 65.1562 11.4062 65.1562
C9.20312 65.1562 7.29688 63.375 7.29688 61.0781
C7.29688 58.8906 9.09375 57 11.4062 57
C13.5938 57 15.5 58.7969 15.5 61.0781
M3.79688 42.2812
L3.79688 39.7031
C9.40625 39.7031 10.2031 39.0938 10.2031 34.3281
L10.2031 6.67188
C10.2031 2.875 9.79688 2.39062 3.40625 2.39062
L3.40625 -0.203125
C5.79688 0 10.0938 0 12.5938 0
C15 0 19.0938 0 21.4062 -0.203125
L21.4062 2.39062
C15.5 2.39062 15.2969 2.98438 15.2969 6.5625
L15.2969 43.375
z
" id="CMR17-105"/>
      <path d="
M41.5 30.2031
C41.5 35.2969 40.5 43.5938 28.7031 43.5938
C20.7969 43.5938 16.7031 37.5 15.2031 33.5
L15.0938 33.5
L15.0938 43.5938
L3.29688 42.5
L3.29688 39.9062
C9.20312 39.9062 10.0938 39.2969 10.0938 34.5
L10.0938 6.6875
C10.0938 2.875 9.70312 2.39062 3.29688 2.39062
L3.29688 -0.203125
C5.70312 0 10.0938 0 12.7031 0
C15.2969 0 19.7969 0 22.2031 -0.203125
L22.2031 2.39062
C15.7969 2.39062 15.4062 2.78125 15.4062 6.6875
L15.4062 25.9062
C15.4062 35.1094 21 42 28 42
C35.4062 42 36.2031 35.4062 36.2031 30.5938
L36.2031 6.6875
C36.2031 2.875 35.7969 2.39062 29.4062 2.39062
L29.4062 -0.203125
C31.7969 0 36.2031 0 38.7969 0
C41.4062 0 45.9062 0 48.2969 -0.203125
L48.2969 2.39062
C41.9062 2.39062 41.5 2.78125 41.5 6.6875
z
" id="CMR17-110"/>
      <path d="
M62.0938 19.2656
C62.0938 23.0156 62.4062 23.5156 68.5938 23.5156
L68.5938 26.0938
C66.2031 26 60.7969 26 58.0938 26
C55.2969 26 47.5 26 43.7031 26
L43.7031 23.5156
L46.7031 23.5156
C55.2969 23.5156 55.5 22.4062 55.5 18.7656
L55.5 12.0938
C55.5 0.984375 42.5 0.984375 39.4062 0.984375
C29.0938 0.984375 12.2031 8 12.2031 33.7969
C12.2031 59.5781 28.7969 66.5 38.5 66.5
C49.7969 66.5 58 56.75 59.9062 42.9219
C60.0938 41.7188 60.0938 41.5156 61 41.5156
C62.0938 41.5156 62.0938 41.7188 62.0938 43.5156
L62.0938 67.1094
C62.0938 68.8906 62 69 61.4062 69
C61 69 60.9062 68.8906 60.2031 67.7031
L55.7969 59.3281
C50.9062 65.4531 44.9062 69 37.2031 69
C20.0938 69 4.59375 54 4.59375 33.5469
C4.59375 13.2031 19.7969 -2 37.4062 -2
C45.5 -2 53.4062 0.875 56.5 6.51562
C58.2031 2.46875 61 -0.3125 61.5 -0.3125
C62 -0.3125 62.0938 -0.203125 62.0938 1.5625
z
" id="CMR17-71"/>
     </defs>
     <g style="fill:#555555;" transform="translate(41.9525996264 247.310123049)rotate(-90.0)scale(0.08 -0.08)">
      <use transform="scale(0.996264009963)" xlink:href="#CMR17-110"/>
      <use transform="translate(50.8953697803 0.0)scale(0.996264009963)" xlink:href="#CMR17-69"/>
      <use transform="translate(113.481670299 0.0)scale(0.996264009963)" xlink:href="#CMR17-91"/>
      <use transform="translate(138.352728781 0.0)scale(0.996264009963)" xlink:href="#CMR17-76"/>
      <use transform="translate(195.734136636 0.0)scale(0.996264009963)" xlink:href="#CMR17-97"/>
      <use transform="translate(241.424613753 0.0)scale(0.996264009963)" xlink:href="#CMR17-116"/>
      <use transform="translate(276.705381553 0.0)scale(0.996264009963)" xlink:href="#CMR17-101"/>
      <use transform="translate(317.191042015 0.0)scale(0.996264009963)" xlink:href="#CMR17-110"/>
      <use transform="translate(368.086411796 0.0)scale(0.996264009963)" xlink:href="#CMR17-99"/>
      <use transform="translate(408.572072258 0.0)scale(0.996264009963)" xlink:href="#CMR17-121"/>
      <use transform="translate(456.864988106 0.0)scale(0.996264009963)" xlink:href="#CMR17-71"/>
      <use transform="translate(529.220334026 0.0)scale(0.996264009963)" xlink:href="#CMR17-97"/>
      <use transform="translate(574.910811143 0.0)scale(0.996264009963)" xlink:href="#CMR17-105"/>
      <use transform="translate(599.781869625 0.0)scale(0.996264009963)" xlink:href="#CMR17-110"/>
      <use transform="translate(650.677239405 0.0)scale(0.996264009963)" xlink:href="#CMR17-93"/>
     </g>
    </g>
   </g>
   <g id="patch_3">
    <path clip-path="url(#p7ff5b81e1d)" d="
M75.3564 388.8
L78.0415 388.8
L78.0415 328.666
L75.3564 328.666
z
" style="fill:#ff0000;stroke:#eeeeee;stroke-linejoin:miter;stroke-width:0.5;"/>
   </g>
   <g id="patch_4">
    <path clip-path="url(#p7ff5b81e1d)" d="
M95.4947 388.8
L98.1798 388.8
L98.1798 280.005
L95.4947 280.005
z
" style="fill:#ff0000;stroke:#eeeeee;stroke-linejoin:miter;stroke-width:0.5;"/>
   </g>
   <g id="patch_5">
    <path clip-path="url(#p7ff5b81e1d)" d="
M115.633 388.8
L118.318 388.8
L118.318 214.756
L115.633 214.756
z
" style="fill:#ff0000;stroke:#eeeeee;stroke-linejoin:miter;stroke-width:0.5;"/>
   </g>
   <g id="patch_6">
    <path clip-path="url(#p7ff5b81e1d)" d="
M135.771 388.8
L138.457 388.8
L138.457 316.362
L135.771 316.362
z
" style="fill:#ff0000;stroke:#eeeeee;stroke-linejoin:miter;stroke-width:0.5;"/>
   </g>
   <g id="patch_7">
    <path clip-path="url(#p7ff5b81e1d)" d="
M155.91 388.8
L158.595 388.8
L158.595 332.122
L155.91 332.122
z
" style="fill:#ff0000;stroke:#eeeeee;stroke-linejoin:miter;stroke-width:0.5;"/>
   </g>
   <g id="patch_8">
    <path clip-path="url(#p7ff5b81e1d)" d="
M176.048 388.8
L178.733 388.8
L178.733 310.971
L176.048 310.971
z
" style="fill:#ff0000;stroke:#eeeeee;stroke-linejoin:miter;stroke-width:0.5;"/>
   </g>
   <g id="patch_9">
    <path clip-path="url(#p7ff5b81e1d)" d="
M196.186 388.8
L198.872 388.8
L198.872 208.12
L196.186 208.12
z
" style="fill:#ff0000;stroke:#eeeeee;stroke-linejoin:miter;stroke-width:0.5;"/>
   </g>
   <g id="patch_10">
    <path clip-path="url(#p7ff5b81e1d)" d="
M216.325 388.8
L219.01 388.8
L219.01 275.858
L216.325 275.858
z
" style="fill:#ff0000;stroke:#eeeeee;stroke-linejoin:miter;stroke-width:0.5;"/>
   </g>
   <g id="patch_11">
    <path clip-path="url(#p7ff5b81e1d)" d="
M236.463 388.8
L239.148 388.8
L239.148 341.245
L236.463 341.245
z
" style="fill:#ff0000;stroke:#eeeeee;stroke-linejoin:miter;stroke-width:0.5;"/>
   </g>
   <g id="patch_12">
    <path clip-path="url(#p7ff5b81e1d)" d="
M256.602 388.8
L259.287 388.8
L259.287 164.575
L256.602 164.575
z
" style="fill:#ff0000;stroke:#eeeeee;stroke-linejoin:miter;stroke-width:0.5;"/>
   </g>
   <g id="patch_13">
    <path clip-path="url(#p7ff5b81e1d)" d="
M276.74 388.8
L279.425 388.8
L279.425 323.965
L276.74 323.965
z
" style="fill:#ff0000;stroke:#eeeeee;stroke-linejoin:miter;stroke-width:0.5;"/>
   </g>
   <g id="patch_14">
    <path clip-path="url(#p7ff5b81e1d)" d="
M296.878 388.8
L299.563 388.8
L299.563 315.948
L296.878 315.948
z
" style="fill:#ff0000;stroke:#eeeeee;stroke-linejoin:miter;stroke-width:0.5;"/>
   </g>
   <g id="patch_15">
    <path clip-path="url(#p7ff5b81e1d)" d="
M317.017 388.8
L319.702 388.8
L319.702 263.278
L317.017 263.278
z
" style="fill:#ff0000;stroke:#eeeeee;stroke-linejoin:miter;stroke-width:0.5;"/>
   </g>
   <g id="patch_16">
    <path clip-path="url(#p7ff5b81e1d)" d="
M337.155 388.8
L339.84 388.8
L339.84 276.134
L337.155 276.134
z
" style="fill:#ff0000;stroke:#eeeeee;stroke-linejoin:miter;stroke-width:0.5;"/>
   </g>
   <g id="patch_17">
    <path clip-path="url(#p7ff5b81e1d)" d="
M357.293 388.8
L359.978 388.8
L359.978 321.201
L357.293 321.201
z
" style="fill:#ff0000;stroke:#eeeeee;stroke-linejoin:miter;stroke-width:0.5;"/>
   </g>
   <g id="patch_18">
    <path clip-path="url(#p7ff5b81e1d)" d="
M377.432 388.8
L380.117 388.8
L380.117 297.976
L377.432 297.976
z
" style="fill:#ff0000;stroke:#eeeeee;stroke-linejoin:miter;stroke-width:0.5;"/>
   </g>
   <g id="patch_19">
    <path clip-path="url(#p7ff5b81e1d)" d="
M397.57 388.8
L400.255 388.8
L400.255 359.493
L397.57 359.493
z
" style="fill:#ff0000;stroke:#eeeeee;stroke-linejoin:miter;stroke-width:0.5;"/>
   </g>
   <g id="patch_20">
    <path clip-path="url(#p7ff5b81e1d)" d="
M417.708 388.8
L420.393 388.8
L420.393 350.922
L417.708 350.922
z
" style="fill:#ff0000;stroke:#eeeeee;stroke-linejoin:miter;stroke-width:0.5;"/>
   </g>
   <g id="patch_21">
    <path clip-path="url(#p7ff5b81e1d)" d="
M437.847 388.8
L440.532 388.8
L440.532 355.761
L437.847 355.761
z
" style="fill:#ff0000;stroke:#eeeeee;stroke-linejoin:miter;stroke-width:0.5;"/>
   </g>
   <g id="patch_22">
    <path clip-path="url(#p7ff5b81e1d)" d="
M457.985 388.8
L460.67 388.8
L460.67 361.014
L457.985 361.014
z
" style="fill:#ff0000;stroke:#eeeeee;stroke-linejoin:miter;stroke-width:0.5;"/>
   </g>
   <g id="patch_23">
    <path clip-path="url(#p7ff5b81e1d)" d="
M478.123 388.8
L480.808 388.8
L480.808 342.766
L478.123 342.766
z
" style="fill:#ff0000;stroke:#eeeeee;stroke-linejoin:miter;stroke-width:0.5;"/>
   </g>
   <g id="patch_24">
    <path clip-path="url(#p7ff5b81e1d)" d="
M498.262 388.8
L500.947 388.8
L500.947 301.985
L498.262 301.985
z
" style="fill:#ff0000;stroke:#eeeeee;stroke-linejoin:miter;stroke-width:0.5;"/>
   </g>
   <g id="patch_25">
    <path clip-path="url(#p7ff5b81e1d)" d="
M78.7128 388.8
L81.3979 388.8
L81.3979 292.308
L78.7128 292.308
z
" style="fill:#008000;stroke:#eeeeee;stroke-linejoin:miter;stroke-width:0.5;"/>
   </g>
   <g id="patch_26">
    <path clip-path="url(#p7ff5b81e1d)" d="
M98.8511 388.8
L101.536 388.8
L101.536 250.284
L98.8511 250.284
z
" style="fill:#008000;stroke:#eeeeee;stroke-linejoin:miter;stroke-width:0.5;"/>
   </g>
   <g id="patch_27">
    <path clip-path="url(#p7ff5b81e1d)" d="
M118.989 388.8
L121.675 388.8
L121.675 216.829
L118.989 216.829
z
" style="fill:#008000;stroke:#eeeeee;stroke-linejoin:miter;stroke-width:0.5;"/>
   </g>
   <g id="patch_28">
    <path clip-path="url(#p7ff5b81e1d)" d="
M139.128 388.8
L141.813 388.8
L141.813 318.159
L139.128 318.159
z
" style="fill:#008000;stroke:#eeeeee;stroke-linejoin:miter;stroke-width:0.5;"/>
   </g>
   <g id="patch_29">
    <path clip-path="url(#p7ff5b81e1d)" d="
M159.266 388.8
L161.951 388.8
L161.951 303.091
L159.266 303.091
z
" style="fill:#008000;stroke:#eeeeee;stroke-linejoin:miter;stroke-width:0.5;"/>
   </g>
   <g id="patch_30">
    <path clip-path="url(#p7ff5b81e1d)" d="
M179.405 388.8
L182.09 388.8
L182.09 302.262
L179.405 302.262
z
" style="fill:#008000;stroke:#eeeeee;stroke-linejoin:miter;stroke-width:0.5;"/>
   </g>
   <g id="patch_31">
    <path clip-path="url(#p7ff5b81e1d)" d="
M199.543 388.8
L202.228 388.8
L202.228 172.454
L199.543 172.454
z
" style="fill:#008000;stroke:#eeeeee;stroke-linejoin:miter;stroke-width:0.5;"/>
   </g>
   <g id="patch_32">
    <path clip-path="url(#p7ff5b81e1d)" d="
M219.681 388.8
L222.366 388.8
L222.366 162.916
L219.681 162.916
z
" style="fill:#008000;stroke:#eeeeee;stroke-linejoin:miter;stroke-width:0.5;"/>
   </g>
   <g id="patch_33">
    <path clip-path="url(#p7ff5b81e1d)" d="
M239.82 388.8
L242.505 388.8
L242.505 322.86
L239.82 322.86
z
" style="fill:#008000;stroke:#eeeeee;stroke-linejoin:miter;stroke-width:0.5;"/>
   </g>
   <g id="patch_34">
    <path clip-path="url(#p7ff5b81e1d)" d="
M259.958 388.8
L262.643 388.8
L262.643 213.65
L259.958 213.65
z
" style="fill:#008000;stroke:#eeeeee;stroke-linejoin:miter;stroke-width:0.5;"/>
   </g>
   <g id="patch_35">
    <path clip-path="url(#p7ff5b81e1d)" d="
M280.096 388.8
L282.781 388.8
L282.781 240.607
L280.096 240.607
z
" style="fill:#008000;stroke:#eeeeee;stroke-linejoin:miter;stroke-width:0.5;"/>
   </g>
   <g id="patch_36">
    <path clip-path="url(#p7ff5b81e1d)" d="
M300.235 388.8
L302.92 388.8
L302.92 310.971
L300.235 310.971
z
" style="fill:#008000;stroke:#eeeeee;stroke-linejoin:miter;stroke-width:0.5;"/>
   </g>
   <g id="patch_37">
    <path clip-path="url(#p7ff5b81e1d)" d="
M320.373 388.8
L323.058 388.8
L323.058 237.842
L320.373 237.842
z
" style="fill:#008000;stroke:#eeeeee;stroke-linejoin:miter;stroke-width:0.5;"/>
   </g>
   <g id="patch_38">
    <path clip-path="url(#p7ff5b81e1d)" d="
M340.511 388.8
L343.196 388.8
L343.196 269.914
L340.511 269.914
z
" style="fill:#008000;stroke:#eeeeee;stroke-linejoin:miter;stroke-width:0.5;"/>
   </g>
   <g id="patch_39">
    <path clip-path="url(#p7ff5b81e1d)" d="
M360.65 388.8
L363.335 388.8
L363.335 326.73
L360.65 326.73
z
" style="fill:#008000;stroke:#eeeeee;stroke-linejoin:miter;stroke-width:0.5;"/>
   </g>
   <g id="patch_40">
    <path clip-path="url(#p7ff5b81e1d)" d="
M380.788 388.8
L383.473 388.8
L383.473 262.449
L380.788 262.449
z
" style="fill:#008000;stroke:#eeeeee;stroke-linejoin:miter;stroke-width:0.5;"/>
   </g>
   <g id="patch_41">
    <path clip-path="url(#p7ff5b81e1d)" d="
M400.926 388.8
L403.611 388.8
L403.611 370.138
L400.926 370.138
z
" style="fill:#008000;stroke:#eeeeee;stroke-linejoin:miter;stroke-width:0.5;"/>
   </g>
   <g id="patch_42">
    <path clip-path="url(#p7ff5b81e1d)" d="
M421.065 388.8
L423.75 388.8
L423.75 362.396
L421.065 362.396
z
" style="fill:#008000;stroke:#eeeeee;stroke-linejoin:miter;stroke-width:0.5;"/>
   </g>
   <g id="patch_43">
    <path clip-path="url(#p7ff5b81e1d)" d="
M441.203 388.8
L443.888 388.8
L443.888 359.908
L441.203 359.908
z
" style="fill:#008000;stroke:#eeeeee;stroke-linejoin:miter;stroke-width:0.5;"/>
   </g>
   <g id="patch_44">
    <path clip-path="url(#p7ff5b81e1d)" d="
M461.341 388.8
L464.026 388.8
L464.026 349.54
L461.341 349.54
z
" style="fill:#008000;stroke:#eeeeee;stroke-linejoin:miter;stroke-width:0.5;"/>
   </g>
   <g id="patch_45">
    <path clip-path="url(#p7ff5b81e1d)" d="
M481.48 388.8
L484.165 388.8
L484.165 327.698
L481.48 327.698
z
" style="fill:#008000;stroke:#eeeeee;stroke-linejoin:miter;stroke-width:0.5;"/>
   </g>
   <g id="patch_46">
    <path clip-path="url(#p7ff5b81e1d)" d="
M501.618 388.8
L504.303 388.8
L504.303 284.429
L501.618 284.429
z
" style="fill:#008000;stroke:#eeeeee;stroke-linejoin:miter;stroke-width:0.5;"/>
   </g>
   <g id="patch_47">
    <path clip-path="url(#p7ff5b81e1d)" d="
M82.0692 388.8
L84.7543 388.8
L84.7543 162.225
L82.0692 162.225
z
" style="fill:#0000ff;stroke:#eeeeee;stroke-linejoin:miter;stroke-width:0.5;"/>
   </g>
   <g id="patch_48">
    <path clip-path="url(#p7ff5b81e1d)" d="
M102.208 388.8
L104.893 388.8
L104.893 127.112
L102.208 127.112
z
" style="fill:#0000ff;stroke:#eeeeee;stroke-linejoin:miter;stroke-width:0.5;"/>
   </g>
   <g id="patch_49">
    <path clip-path="url(#p7ff5b81e1d)" d="
M122.346 388.8
L125.031 388.8
L125.031 372.902
L122.346 372.902
z
" style="fill:#0000ff;stroke:#eeeeee;stroke-linejoin:miter;stroke-width:0.5;"/>
   </g>
   <g id="patch_50">
    <path clip-path="url(#p7ff5b81e1d)" d="
M142.484 388.8
L145.169 388.8
L145.169 324.518
L142.484 324.518
z
" style="fill:#0000ff;stroke:#eeeeee;stroke-linejoin:miter;stroke-width:0.5;"/>
   </g>
   <g id="patch_51">
    <path clip-path="url(#p7ff5b81e1d)" d="
M162.623 388.8
L165.308 388.8
L165.308 351.89
L162.623 351.89
z
" style="fill:#0000ff;stroke:#eeeeee;stroke-linejoin:miter;stroke-width:0.5;"/>
   </g>
   <g id="patch_52">
    <path clip-path="url(#p7ff5b81e1d)" d="
M182.761 388.8
L185.446 388.8
L185.446 335.301
L182.761 335.301
z
" style="fill:#0000ff;stroke:#eeeeee;stroke-linejoin:miter;stroke-width:0.5;"/>
   </g>
   <g id="patch_53">
    <path clip-path="url(#p7ff5b81e1d)" d="
M202.899 388.8
L205.584 388.8
L205.584 302.676
L202.899 302.676
z
" style="fill:#0000ff;stroke:#eeeeee;stroke-linejoin:miter;stroke-width:0.5;"/>
   </g>
   <g id="patch_54">
    <path clip-path="url(#p7ff5b81e1d)" d="
M223.038 388.8
L225.723 388.8
L225.723 313.597
L223.038 313.597
z
" style="fill:#0000ff;stroke:#eeeeee;stroke-linejoin:miter;stroke-width:0.5;"/>
   </g>
   <g id="patch_55">
    <path clip-path="url(#p7ff5b81e1d)" d="
M243.176 388.8
L245.861 388.8
L245.861 365.023
L243.176 365.023
z
" style="fill:#0000ff;stroke:#eeeeee;stroke-linejoin:miter;stroke-width:0.5;"/>
   </g>
   <g id="patch_56">
    <path clip-path="url(#p7ff5b81e1d)" d="
M263.314 388.8
L265.999 388.8
L265.999 334.472
L263.314 334.472
z
" style="fill:#0000ff;stroke:#eeeeee;stroke-linejoin:miter;stroke-width:0.5;"/>
   </g>
   <g id="patch_57">
    <path clip-path="url(#p7ff5b81e1d)" d="
M283.453 388.8
L286.138 388.8
L286.138 364.332
L283.453 364.332
z
" style="fill:#0000ff;stroke:#eeeeee;stroke-linejoin:miter;stroke-width:0.5;"/>
   </g>
   <g id="patch_58">
    <path clip-path="url(#p7ff5b81e1d)" d="
M303.591 388.8
L306.276 388.8
L306.276 336.684
L303.591 336.684
z
" style="fill:#0000ff;stroke:#eeeeee;stroke-linejoin:miter;stroke-width:0.5;"/>
   </g>
   <g id="patch_59">
    <path clip-path="url(#p7ff5b81e1d)" d="
M323.729 388.8
L326.414 388.8
L326.414 219.594
L323.729 219.594
z
" style="fill:#0000ff;stroke:#eeeeee;stroke-linejoin:miter;stroke-width:0.5;"/>
   </g>
   <g id="patch_60">
    <path clip-path="url(#p7ff5b81e1d)" d="
M343.868 388.8
L346.553 388.8
L346.553 360.737
L343.868 360.737
z
" style="fill:#0000ff;stroke:#eeeeee;stroke-linejoin:miter;stroke-width:0.5;"/>
   </g>
   <g id="patch_61">
    <path clip-path="url(#p7ff5b81e1d)" d="
M364.006 388.8
L366.691 388.8
L366.691 340.14
L364.006 340.14
z
" style="fill:#0000ff;stroke:#eeeeee;stroke-linejoin:miter;stroke-width:0.5;"/>
   </g>
   <g id="patch_62">
    <path clip-path="url(#p7ff5b81e1d)" d="
M384.144 388.8
L386.829 388.8
L386.829 378.294
L384.144 378.294
z
" style="fill:#0000ff;stroke:#eeeeee;stroke-linejoin:miter;stroke-width:0.5;"/>
   </g>
   <g id="patch_63">
    <path clip-path="url(#p7ff5b81e1d)" d="
M404.283 388.8
L406.968 388.8
L406.968 384.653
L404.283 384.653
z
" style="fill:#0000ff;stroke:#eeeeee;stroke-linejoin:miter;stroke-width:0.5;"/>
   </g>
   <g id="patch_64">
    <path clip-path="url(#p7ff5b81e1d)" d="
M424.421 388.8
L427.106 388.8
L427.106 370.691
L424.421 370.691
z
" style="fill:#0000ff;stroke:#eeeeee;stroke-linejoin:miter;stroke-width:0.5;"/>
   </g>
   <g id="patch_65">
    <path clip-path="url(#p7ff5b81e1d)" d="
M444.559 388.8
L447.245 388.8
L447.245 379.123
L444.559 379.123
z
" style="fill:#0000ff;stroke:#eeeeee;stroke-linejoin:miter;stroke-width:0.5;"/>
   </g>
   <g id="patch_66">
    <path clip-path="url(#p7ff5b81e1d)" d="
M464.698 388.8
L467.383 388.8
L467.383 378.294
L464.698 378.294
z
" style="fill:#0000ff;stroke:#eeeeee;stroke-linejoin:miter;stroke-width:0.5;"/>
   </g>
   <g id="patch_67">
    <path clip-path="url(#p7ff5b81e1d)" d="
M484.836 388.8
L487.521 388.8
L487.521 359.217
L484.836 359.217
z
" style="fill:#0000ff;stroke:#eeeeee;stroke-linejoin:miter;stroke-width:0.5;"/>
   </g>
   <g id="patch_68">
    <path clip-path="url(#p7ff5b81e1d)" d="
M504.974 388.8
L507.66 388.8
L507.66 326.73
L504.974 326.73
z
" style="fill:#0000ff;stroke:#eeeeee;stroke-linejoin:miter;stroke-width:0.5;"/>
   </g>
   <g id="patch_69">
    <path clip-path="url(#p7ff5b81e1d)" d="
M85.4256 388.8
L88.1107 388.8
L88.1107 353.687
L85.4256 353.687
z
" style="fill:#bfbf00;stroke:#eeeeee;stroke-linejoin:miter;stroke-width:0.5;"/>
   </g>
   <g id="patch_70">
    <path clip-path="url(#p7ff5b81e1d)" d="
M105.564 388.8
L108.249 388.8
L108.249 303.644
L105.564 303.644
z
" style="fill:#bfbf00;stroke:#eeeeee;stroke-linejoin:miter;stroke-width:0.5;"/>
   </g>
   <g id="patch_71">
    <path clip-path="url(#p7ff5b81e1d)" d="
M125.702 388.8
L128.387 388.8
L128.387 327.007
L125.702 327.007
z
" style="fill:#bfbf00;stroke:#eeeeee;stroke-linejoin:miter;stroke-width:0.5;"/>
   </g>
   <g id="patch_72">
    <path clip-path="url(#p7ff5b81e1d)" d="
M145.841 388.8
L148.526 388.8
L148.526 349.125
L145.841 349.125
z
" style="fill:#bfbf00;stroke:#eeeeee;stroke-linejoin:miter;stroke-width:0.5;"/>
   </g>
   <g id="patch_73">
    <path clip-path="url(#p7ff5b81e1d)" d="
M165.979 388.8
L168.664 388.8
L168.664 365.023
L165.979 365.023
z
" style="fill:#bfbf00;stroke:#eeeeee;stroke-linejoin:miter;stroke-width:0.5;"/>
   </g>
   <g id="patch_74">
    <path clip-path="url(#p7ff5b81e1d)" d="
M186.117 388.8
L188.802 388.8
L188.802 336.96
L186.117 336.96
z
" style="fill:#bfbf00;stroke:#eeeeee;stroke-linejoin:miter;stroke-width:0.5;"/>
   </g>
   <g id="patch_75">
    <path clip-path="url(#p7ff5b81e1d)" d="
M206.256 388.8
L208.941 388.8
L208.941 335.301
L206.256 335.301
z
" style="fill:#bfbf00;stroke:#eeeeee;stroke-linejoin:miter;stroke-width:0.5;"/>
   </g>
   <g id="patch_76">
    <path clip-path="url(#p7ff5b81e1d)" d="
M226.394 388.8
L229.079 388.8
L229.079 319.127
L226.394 319.127
z
" style="fill:#bfbf00;stroke:#eeeeee;stroke-linejoin:miter;stroke-width:0.5;"/>
   </g>
   <g id="patch_77">
    <path clip-path="url(#p7ff5b81e1d)" d="
M246.532 388.8
L249.217 388.8
L249.217 360.184
L246.532 360.184
z
" style="fill:#bfbf00;stroke:#eeeeee;stroke-linejoin:miter;stroke-width:0.5;"/>
   </g>
   <g id="patch_78">
    <path clip-path="url(#p7ff5b81e1d)" d="
M266.671 388.8
L269.356 388.8
L269.356 329.08
L266.671 329.08
z
" style="fill:#bfbf00;stroke:#eeeeee;stroke-linejoin:miter;stroke-width:0.5;"/>
   </g>
   <g id="patch_79">
    <path clip-path="url(#p7ff5b81e1d)" d="
M286.809 388.8
L289.494 388.8
L289.494 340.831
L286.809 340.831
z
" style="fill:#bfbf00;stroke:#eeeeee;stroke-linejoin:miter;stroke-width:0.5;"/>
   </g>
   <g id="patch_80">
    <path clip-path="url(#p7ff5b81e1d)" d="
M306.947 388.8
L309.632 388.8
L309.632 370.414
L306.947 370.414
z
" style="fill:#bfbf00;stroke:#eeeeee;stroke-linejoin:miter;stroke-width:0.5;"/>
   </g>
   <g id="patch_81">
    <path clip-path="url(#p7ff5b81e1d)" d="
M327.086 388.8
L329.771 388.8
L329.771 309.036
L327.086 309.036
z
" style="fill:#bfbf00;stroke:#eeeeee;stroke-linejoin:miter;stroke-width:0.5;"/>
   </g>
   <g id="patch_82">
    <path clip-path="url(#p7ff5b81e1d)" d="
M347.224 388.8
L349.909 388.8
L349.909 345.254
L347.224 345.254
z
" style="fill:#bfbf00;stroke:#eeeeee;stroke-linejoin:miter;stroke-width:0.5;"/>
   </g>
   <g id="patch_83">
    <path clip-path="url(#p7ff5b81e1d)" d="
M367.362 388.8
L370.048 388.8
L370.048 346.775
L367.362 346.775
z
" style="fill:#bfbf00;stroke:#eeeeee;stroke-linejoin:miter;stroke-width:0.5;"/>
   </g>
   <g id="patch_84">
    <path clip-path="url(#p7ff5b81e1d)" d="
M387.501 388.8
L390.186 388.8
L390.186 364.608
L387.501 364.608
z
" style="fill:#bfbf00;stroke:#eeeeee;stroke-linejoin:miter;stroke-width:0.5;"/>
   </g>
   <g id="patch_85">
    <path clip-path="url(#p7ff5b81e1d)" d="
M407.639 388.8
L410.324 388.8
L410.324 368.893
L407.639 368.893
z
" style="fill:#bfbf00;stroke:#eeeeee;stroke-linejoin:miter;stroke-width:0.5;"/>
   </g>
   <g id="patch_86">
    <path clip-path="url(#p7ff5b81e1d)" d="
M427.777 388.8
L430.463 388.8
L430.463 357.558
L427.777 357.558
z
" style="fill:#bfbf00;stroke:#eeeeee;stroke-linejoin:miter;stroke-width:0.5;"/>
   </g>
   <g id="patch_87">
    <path clip-path="url(#p7ff5b81e1d)" d="
M447.916 388.8
L450.601 388.8
L450.601 328.666
L447.916 328.666
z
" style="fill:#bfbf00;stroke:#eeeeee;stroke-linejoin:miter;stroke-width:0.5;"/>
   </g>
   <g id="patch_88">
    <path clip-path="url(#p7ff5b81e1d)" d="
M468.054 388.8
L470.739 388.8
L470.739 363.917
L468.054 363.917
z
" style="fill:#bfbf00;stroke:#eeeeee;stroke-linejoin:miter;stroke-width:0.5;"/>
   </g>
   <g id="patch_89">
    <path clip-path="url(#p7ff5b81e1d)" d="
M488.192 388.8
L490.878 388.8
L490.878 362.811
L488.192 362.811
z
" style="fill:#bfbf00;stroke:#eeeeee;stroke-linejoin:miter;stroke-width:0.5;"/>
   </g>
   <g id="patch_90">
    <path clip-path="url(#p7ff5b81e1d)" d="
M508.331 388.8
L511.016 388.8
L511.016 344.701
L508.331 344.701
z
" style="fill:#bfbf00;stroke:#eeeeee;stroke-linejoin:miter;stroke-width:0.5;"/>
   </g>
   <g id="line2d_85">
    <path clip-path="url(#p7ff5b81e1d)" d="
M135.771 388.8
L135.771 43.2" style="fill:none;opacity:0.3;stroke:#000000;stroke-dasharray:6.000000,6.000000;stroke-dashoffset:0.0;"/>
   </g>
   <g id="line2d_86">
    <path clip-path="url(#p7ff5b81e1d)" d="
M75.3564 112.32
L76.5647 105.612
L77.3199 102.581
L77.924 100.902
L78.5282 99.7657
L79.1323 99.0266
L79.8875 98.4718
L80.7937 98.1238
L81.3979 97.9991
L84.4186 97.8208
L102.921 97.6501
L103.676 97.2812
L104.054 96.861
L104.431 96.1505
L104.809 95.0341
L105.564 91.584
L105.564 91.584
L106.319 95.0341
L106.697 96.1505
L107.074 96.861
L107.452 97.2812
L108.207 97.6501
L109.34 97.7808
L111.605 97.8042
L128.22 97.8607
L130.485 98.1657
L131.391 98.5584
L131.995 99.0266
L132.6 99.7657
L133.204 100.902
L133.808 102.581
L134.412 104.92
L135.167 108.765
L135.771 112.32
L135.771 112.32" style="fill:none;stroke:#000000;stroke-linecap:square;"/>
   </g>
   <g id="line2d_87">
    <path clip-path="url(#p7ff5b81e1d)" d="
M276.74 388.8
L276.74 43.2" style="fill:none;opacity:0.3;stroke:#000000;stroke-dasharray:6.000000,6.000000;stroke-dashoffset:0.0;"/>
   </g>
   <g id="line2d_88">
    <path clip-path="url(#p7ff5b81e1d)" d="
M135.771 112.32
L137.886 107.118
L139.296 104.27
L140.353 102.581
L141.41 101.265
L142.467 100.275
L143.525 99.5491
L144.934 98.8884
L146.344 98.4718
L148.459 98.1238
L149.868 97.9991
L156.917 97.8208
L200.088 97.6501
L201.85 97.2812
L202.731 96.861
L203.612 96.1505
L204.494 95.0341
L205.375 93.4671
L206.256 91.584
L206.256 91.584
L207.137 93.4671
L208.018 95.0341
L208.899 96.1505
L209.78 96.861
L210.661 97.2812
L212.423 97.6501
L215.066 97.7808
L220.352 97.8042
L259.119 97.8607
L264.405 98.1657
L266.52 98.5584
L267.929 99.0266
L269.339 99.7657
L270.396 100.573
L271.454 101.665
L272.511 103.101
L273.568 104.92
L274.978 107.926
L276.74 112.32
L276.74 112.32" style="fill:none;stroke:#000000;stroke-linecap:square;"/>
   </g>
   <g id="line2d_89">
    <path clip-path="url(#p7ff5b81e1d)" d="
M317.017 388.8
L317.017 43.2" style="fill:none;opacity:0.3;stroke:#000000;stroke-dasharray:6.000000,6.000000;stroke-dashoffset:0.0;"/>
   </g>
   <g id="line2d_90">
    <path clip-path="url(#p7ff5b81e1d)" d="
M276.74 112.32
L277.646 104.92
L278.25 101.665
L278.754 100.007
L279.257 99.0266
L279.761 98.4718
L280.365 98.1238
L280.768 97.9991
L282.781 97.8208
L295.116 97.6501
L295.62 97.2812
L295.871 96.861
L296.123 96.1505
L296.626 93.4671
L296.878 91.584
L296.878 91.584
L297.382 95.0341
L297.885 96.861
L298.389 97.5189
L298.892 97.7215
L299.899 97.7979
L308.961 97.8061
L311.982 97.8607
L313.492 98.1657
L314.096 98.5584
L314.6 99.1816
L315.003 100.007
L315.405 101.265
L315.909 103.664
L316.513 107.926
L317.017 112.32
L317.017 112.32" style="fill:none;stroke:#000000;stroke-linecap:square;"/>
   </g>
   <g id="line2d_91">
    <path clip-path="url(#p7ff5b81e1d)" d="
M498.262 388.8
L498.262 43.2" style="fill:none;opacity:0.3;stroke:#000000;stroke-dasharray:6.000000,6.000000;stroke-dashoffset:0.0;"/>
   </g>
   <g id="line2d_92">
    <path clip-path="url(#p7ff5b81e1d)" d="
M317.017 112.32
L319.735 107.118
L321.095 104.92
L322.454 103.101
L323.813 101.665
L325.173 100.573
L326.532 99.7657
L327.891 99.1816
L329.704 98.6557
L331.969 98.2666
L335.141 97.9991
L344.203 97.8208
L399.71 97.6501
L401.975 97.2812
L403.108 96.861
L404.241 96.1505
L405.374 95.0341
L406.506 93.4671
L407.639 91.584
L407.639 91.584
L408.772 93.4671
L409.905 95.0341
L411.037 96.1505
L412.17 96.861
L413.303 97.2812
L415.569 97.6501
L418.967 97.7808
L425.764 97.8042
L475.606 97.8607
L482.403 98.1657
L485.121 98.5584
L486.934 99.0266
L488.293 99.5491
L489.653 100.275
L491.012 101.265
L492.371 102.581
L493.731 104.27
L495.09 106.346
L496.902 109.63
L498.262 112.32
L498.262 112.32" style="fill:none;stroke:#000000;stroke-linecap:square;"/>
   </g>
   <g id="patch_91">
    <path d="
M72 43.2
L518.4 43.2" style="fill:none;stroke:#ffffff;stroke-linecap:square;stroke-linejoin:miter;"/>
   </g>
   <g id="patch_92">
    <path d="
M518.4 388.8
L518.4 43.2" style="fill:none;stroke:#ffffff;stroke-linecap:square;stroke-linejoin:miter;"/>
   </g>
   <g id="patch_93">
    <path d="
M72 388.8
L518.4 388.8" style="fill:none;stroke:#ffffff;stroke-linecap:square;stroke-linejoin:miter;"/>
   </g>
   <g id="patch_94">
    <path d="
M72 388.8
L72 43.2" style="fill:none;stroke:#ffffff;stroke-linecap:square;stroke-linejoin:miter;"/>
   </g>
   <g id="text_31">
    <!-- natural disaster -->
    <defs>
     <path d="
M53.5 5.20312
C52.5938 5 52.2031 5 51.7031 5
C48.7969 5 47.2031 6.48438 47.2031 9.07812
L47.2031 39.7656
C47.2031 49.0156 40.4062 54 27.5 54
C19.9062 54 13.5938 51.8125 10.0938 47.9062
C7.70312 45.2031 6.70312 42.2188 6.5 37.0312
L14.9062 37.0312
C15.5938 43.3906 19.4062 46.2812 27.2031 46.2812
C34.7031 46.2812 38.9062 43.4844 38.9062 38.5156
L38.9062 36.3281
C38.9062 32.8281 36.7969 31.3438 30.2031 30.5469
C18.4062 29.0625 16.5938 28.6562 13.4062 27.3594
C7.29688 24.875 4.20312 20.1875 4.20312 13.4219
C4.20312 3.96875 10.7969 -2 21.4062 -2
C28 -2 33.2969 0.296875 39.2031 5.70312
C39.7969 0.390625 42.4062 -2 47.7969 -2
C49.5 -2 50.7969 -1.8125 53.5 -1.09375
z

M38.9062 16.75
C38.9062 13.9531 38.0938 12.2656 35.5938 9.98438
C32.2031 6.89062 28.0938 5.3125 23.2031 5.3125
C16.7031 5.3125 12.9062 8.39062 12.9062 13.6562
C12.9062 19.1406 16.5938 21.9219 25.5 23.2188
C34.2969 24.4062 36.0938 24.8125 38.9062 26.0938
z
" id="Nimbus_Sans_L_Regular-97"/>
     <path d="
M51.2969 24
C51.2969 31.875 50.7031 36.5938 49.2031 40.4219
C45.7969 48.875 37.7969 54 28 54
C13.4062 54 4 42.8438 4 25.7031
C4 8.54688 13.0938 -2 27.7969 -2
C39.7969 -2 48.0938 4.875 50.2031 16.375
L41.7969 16.375
C39.5 9.35938 34.7969 5.70312 28.0938 5.70312
C22.7969 5.70312 18.2969 8.14062 15.5 12.6094
C13.5 15.6562 12.7969 18.7188 12.7031 24
z

M12.9062 30.8125
C13.5938 40.1875 19.5 46.2812 27.9062 46.2812
C36.0938 46.2812 42.4062 39.7031 42.4062 31.4062
C42.4062 31.2031 42.4062 31.0156 42.2969 30.8125
z
" id="Nimbus_Sans_L_Regular-101"/>
     <path d="
M49.5 73
L41.2031 73
L41.2031 45.8906
C37.7031 51.1875 32.0938 54 25.0938 54
C11.5 54 2.59375 43.1406 2.59375 26.4844
C2.59375 8.84375 11.2969 -2 25.4062 -2
C32.5938 -2 37.5938 0.703125 42.0938 7.20312
L42.0938 -0.03125
L49.5 -0.03125
z

M26.5 46.1875
C35.5 46.1875 41.2031 38.2344 41.2031 25.7969
C41.2031 13.7656 35.4062 5.8125 26.5938 5.8125
C17.4062 5.8125 11.2969 13.8594 11.2969 26
C11.2969 38.125 17.4062 46.1875 26.5 46.1875" id="Nimbus_Sans_L_Regular-100"/>
     <path d="
M15.2031 73
L6.79688 73
L6.79688 -0.03125
L15.2031 -0.03125
z
" id="Nimbus_Sans_L_Regular-108"/>
     <path d="
M15 52.4844
L6.70312 52.4844
L6.70312 0
L15 0
z

M15 73
L6.59375 73
L6.59375 62.4844
L15 62.4844
z
" id="Nimbus_Sans_L_Regular-105"/>
     <path d="
M7 52.4844
L7 0
L15.4062 0
L15.4062 28.9531
C15.4062 39.6719 21 46.6875 29.5938 46.6875
C36.2031 46.6875 40.4062 42.6719 40.4062 36.3594
L40.4062 0
L48.7031 0
L48.7031 39.6719
C48.7031 48.3906 42.2031 54 32.0938 54
C24.2969 54 19.2969 50.9844 14.7031 43.6875
L14.7031 52.4844
z
" id="Nimbus_Sans_L_Regular-110"/>
     <path d="
M25.4062 52.8125
L16.7969 52.8125
L16.7969 67
L8.5 67
L8.5 52.8125
L1.40625 52.8125
L1.40625 46
L8.5 46
L8.5 6.3125
C8.5 1 12.0938 -2 18.5938 -2
C20.5938 -2 22.5938 -1.8125 25.4062 -1.29688
L25.4062 5.71875
C24.2969 5.40625 23 5.3125 21.4062 5.3125
C17.7969 5.3125 16.7969 6.3125 16.7969 10.0156
L16.7969 46
L25.4062 46
z
" id="Nimbus_Sans_L_Regular-116"/>
     <path d="
M48.2031 0.515625
L48.2031 53
L39.9062 53
L39.9062 23.1094
C39.9062 12.3438 34.2969 5.3125 25.5938 5.3125
C19 5.3125 14.7969 9.32812 14.7969 15.6719
L14.7969 53
L6.5 53
L6.5 12.375
C6.5 3.625 13 -2 23.2031 -2
C30.9062 -2 35.7969 0.703125 40.7031 7.625
L40.7031 0.515625
z
" id="Nimbus_Sans_L_Regular-117"/>
     <path d="
M6.90625 52.4844
L6.90625 0
L15.2969 0
L15.2969 27.25
C15.2969 34.7656 17.2031 39.6719 21.2031 42.5781
C23.7969 44.4844 26.2969 45.0781 32.0938 45.0781
L32.0938 53.7031
C30.7031 53.8906 30 54 28.9062 54
C23.5 54 19.4062 50.7812 14.5938 42.9688
L14.5938 52.4844
z
" id="Nimbus_Sans_L_Regular-114"/>
     <path d="
M43.7969 37.9219
C43.7031 48.2031 36.9062 54 24.7969 54
C12.5938 54 4.70312 47.7188 4.70312 38.0625
C4.70312 29.8906 8.90625 26.0156 21.2969 23.0312
L29.0938 21.1406
C34.9062 19.7344 37.2031 17.6562 37.2031 13.875
C37.2031 9 32.2969 5.70312 25 5.70312
C20.5 5.70312 16.7031 7 14.5938 9.1875
C13.2969 10.6875 12.7031 12.1719 12.2031 15.8438
L3.40625 15.8438
C3.79688 3.76562 10.5938 -2 24.2969 -2
C37.5 -2 45.9062 4.45312 45.9062 14.5156
C45.9062 22.2812 41.5 26.5781 31.0938 29.0625
L23.0938 30.9531
C16.2969 32.5312 13.4062 34.7344 13.4062 38.4062
C13.4062 43.1875 17.7031 46.2812 24.5 46.2812
C31.2031 46.2812 34.7969 43.3906 35 37.9219
z
" id="Nimbus_Sans_L_Regular-115"/>
    </defs>
    <g transform="translate(78.3622508343 79.7505365868)scale(0.08 -0.08)">
     <use transform="scale(0.996264009963)" xlink:href="#Nimbus_Sans_L_Regular-110"/>
     <use transform="translate(55.3916769633 0.0)scale(0.996264009963)" xlink:href="#Nimbus_Sans_L_Regular-97"/>
     <use transform="translate(110.783353927 0.0)scale(0.996264009963)" xlink:href="#Nimbus_Sans_L_Regular-116"/>
     <use transform="translate(138.47852353 0.0)scale(0.996264009963)" xlink:href="#Nimbus_Sans_L_Regular-117"/>
     <use transform="translate(193.870200493 0.0)scale(0.996264009963)" xlink:href="#Nimbus_Sans_L_Regular-114"/>
     <use transform="translate(226.049333432 0.0)scale(0.996264009963)" xlink:href="#Nimbus_Sans_L_Regular-97"/>
     <use transform="translate(281.441010396 0.0)scale(0.996264009963)" xlink:href="#Nimbus_Sans_L_Regular-108"/>
     <use transform="translate(331.252964348 0.0)scale(0.996264009963)" xlink:href="#Nimbus_Sans_L_Regular-100"/>
     <use transform="translate(386.644641311 0.0)scale(0.996264009963)" xlink:href="#Nimbus_Sans_L_Regular-105"/>
     <use transform="translate(408.76142566 0.0)scale(0.996264009963)" xlink:href="#Nimbus_Sans_L_Regular-115"/>
     <use transform="translate(458.574626158 0.0)scale(0.996264009963)" xlink:href="#Nimbus_Sans_L_Regular-97"/>
     <use transform="translate(513.966303121 0.0)scale(0.996264009963)" xlink:href="#Nimbus_Sans_L_Regular-115"/>
     <use transform="translate(563.779503619 0.0)scale(0.996264009963)" xlink:href="#Nimbus_Sans_L_Regular-116"/>
     <use transform="translate(591.474673222 0.0)scale(0.996264009963)" xlink:href="#Nimbus_Sans_L_Regular-101"/>
     <use transform="translate(646.866350186 0.0)scale(0.996264009963)" xlink:href="#Nimbus_Sans_L_Regular-114"/>
    </g>
   </g>
   <g id="text_32">
    <!-- accident -->
    <defs>
     <path d="
M47.0938 34.9375
C46.7031 40.0312 45.5938 43.3281 43.5938 46.2188
C40 51.1094 33.7031 54 26.4062 54
C12.2969 54 3.09375 42.8438 3.09375 25.5
C3.09375 8.65625 12.0938 -2 26.2969 -2
C38.7969 -2 46.7031 5.46875 47.7031 18.2344
L39.2969 18.2344
C37.9062 9.875 33.5938 5.70312 26.5 5.70312
C17.2969 5.70312 11.7969 13.1719 11.7969 25.5
C11.7969 38.5312 17.2031 46.2812 26.2969 46.2812
C33.2969 46.2812 37.7031 42.2031 38.7031 34.9375
z
" id="Nimbus_Sans_L_Regular-99"/>
    </defs>
    <g transform="translate(191.415438714 79.7505365868)scale(0.08 -0.08)">
     <use transform="scale(0.996264009963)" xlink:href="#Nimbus_Sans_L_Regular-97"/>
     <use transform="translate(55.3916769633 0.0)scale(0.996264009963)" xlink:href="#Nimbus_Sans_L_Regular-99"/>
     <use transform="translate(105.204877461 0.0)scale(0.996264009963)" xlink:href="#Nimbus_Sans_L_Regular-99"/>
     <use transform="translate(155.01807796 0.0)scale(0.996264009963)" xlink:href="#Nimbus_Sans_L_Regular-105"/>
     <use transform="translate(177.134862308 0.0)scale(0.996264009963)" xlink:href="#Nimbus_Sans_L_Regular-100"/>
     <use transform="translate(232.526539272 0.0)scale(0.996264009963)" xlink:href="#Nimbus_Sans_L_Regular-101"/>
     <use transform="translate(287.918216235 0.0)scale(0.996264009963)" xlink:href="#Nimbus_Sans_L_Regular-110"/>
     <use transform="translate(343.309893198 0.0)scale(0.996264009963)" xlink:href="#Nimbus_Sans_L_Regular-116"/>
    </g>
   </g>
   <g id="text_33">
    <!-- protest -->
    <defs>
     <path d="
M5.40625 -22
L13.7969 -22
L13.7969 5
C18.2031 -0.421875 23.0938 -2.8125 29.9062 -2.8125
C43.4062 -2.8125 52.2969 8.15625 52.2969 24.9844
C52.2969 42.7188 43.7031 53.8125 29.7969 53.8125
C22.7031 53.8125 17 50.5938 13.0938 44.3906
L13.0938 52.3281
L5.40625 52.3281
z

M28.4062 46
C37.5938 46 43.5938 37.8125 43.5938 25.1875
C43.5938 13.1719 37.5 5 28.4062 5
C19.5938 5 13.7969 13.0781 13.7969 25.4844
C13.7969 37.9219 19.5938 46 28.4062 46" id="Nimbus_Sans_L_Regular-112"/>
     <path d="
M27.2031 54
C12.5 54 3.59375 43.5312 3.59375 26
C3.59375 8.45312 12.4062 -2 27.2969 -2
C42 -2 51 8.45312 51 25.5938
C51 43.6406 42.2969 54 27.2031 54
M27.2969 46.2812
C36.7031 46.2812 42.2969 38.625 42.2969 25.7031
C42.2969 13.4531 36.5 5.70312 27.2969 5.70312
C18 5.70312 12.2969 13.3594 12.2969 26
C12.2969 38.5312 18 46.2812 27.2969 46.2812" id="Nimbus_Sans_L_Regular-111"/>
    </defs>
    <g transform="translate(284.696041956 79.7505365868)scale(0.08 -0.08)">
     <use transform="scale(0.996264009963)" xlink:href="#Nimbus_Sans_L_Regular-112"/>
     <use transform="translate(55.3916769633 0.0)scale(0.996264009963)" xlink:href="#Nimbus_Sans_L_Regular-114"/>
     <use transform="translate(88.5669066927 0.0)scale(0.996264009963)" xlink:href="#Nimbus_Sans_L_Regular-111"/>
     <use transform="translate(143.958583656 0.0)scale(0.996264009963)" xlink:href="#Nimbus_Sans_L_Regular-116"/>
     <use transform="translate(171.653753259 0.0)scale(0.996264009963)" xlink:href="#Nimbus_Sans_L_Regular-101"/>
     <use transform="translate(227.045430223 0.0)scale(0.996264009963)" xlink:href="#Nimbus_Sans_L_Regular-115"/>
     <use transform="translate(276.858630721 0.0)scale(0.996264009963)" xlink:href="#Nimbus_Sans_L_Regular-116"/>
    </g>
   </g>
   <g id="text_34">
    <!-- terrorism -->
    <defs>
     <path d="
M7 52.4844
L7 0
L15.4062 0
L15.4062 32.9531
C15.4062 40.5781 20.9062 46.6875 27.7031 46.6875
C33.9062 46.6875 37.4062 42.875 37.4062 36.1562
L37.4062 0
L45.7969 0
L45.7969 32.9531
C45.7969 40.5781 51.2969 46.6875 58.0938 46.6875
C64.2031 46.6875 67.7969 42.7812 67.7969 36.1562
L67.7969 0
L76.2031 0
L76.2031 39.375
C76.2031 48.7812 70.7969 54 61 54
C54 54 49.7969 51.8906 44.9062 45.9844
C41.7969 51.5938 37.5938 54 30.7969 54
C23.7969 54 19.2031 51.3906 14.7031 45.0781
L14.7031 52.4844
z
" id="Nimbus_Sans_L_Regular-109"/>
    </defs>
    <g transform="translate(391.862459965 79.7505365868)scale(0.08 -0.08)">
     <use transform="scale(0.996264009963)" xlink:href="#Nimbus_Sans_L_Regular-116"/>
     <use transform="translate(27.6951696032 0.0)scale(0.996264009963)" xlink:href="#Nimbus_Sans_L_Regular-101"/>
     <use transform="translate(83.0868465666 0.0)scale(0.996264009963)" xlink:href="#Nimbus_Sans_L_Regular-114"/>
     <use transform="translate(116.262076296 0.0)scale(0.996264009963)" xlink:href="#Nimbus_Sans_L_Regular-114"/>
     <use transform="translate(149.437306025 0.0)scale(0.996264009963)" xlink:href="#Nimbus_Sans_L_Regular-111"/>
     <use transform="translate(204.828982989 0.0)scale(0.996264009963)" xlink:href="#Nimbus_Sans_L_Regular-114"/>
     <use transform="translate(239.497590213 0.0)scale(0.996264009963)" xlink:href="#Nimbus_Sans_L_Regular-105"/>
     <use transform="translate(261.614374562 0.0)scale(0.996264009963)" xlink:href="#Nimbus_Sans_L_Regular-115"/>
     <use transform="translate(311.42757506 0.0)scale(0.996264009963)" xlink:href="#Nimbus_Sans_L_Regular-109"/>
    </g>
   </g>
   <g id="legend_1">
    <g id="patch_95">
     <path d="
M339.84 164.16
L410.161 164.16
L410.161 116.255
L339.84 116.255
z
" style="fill:#e5e5e5;stroke:#ffffff;stroke-linejoin:miter;stroke-width:0.5;"/>
    </g>
    <g id="patch_96">
     <path d="
M343.04 125.134
L359.04 125.134
L359.04 119.534
L343.04 119.534
z
" style="fill:#ff0000;stroke:#eeeeee;stroke-linejoin:miter;stroke-width:0.5;"/>
    </g>
    <g id="text_35">
     <!-- $\mathrm{1LtoSfltr20}$ -->
     <defs>
      <path d="
M39.9062 68.8906
C38.7969 68.6875 37.9062 68.5 36.5938 68.2031
C33.7031 69.6875 29.9062 69.6875 28.9062 69.6875
C20.4062 69.6875 9.90625 64.9062 9.90625 54.25
L9.90625 42.5781
L1.90625 42.5781
L1.90625 40
L9.90625 40
L9.90625 6.67188
C9.90625 2.875 9.5 2.39062 3.09375 2.39062
L3.09375 -0.203125
C5.5 0 9.90625 0 12.4062 0
C15 0 19.4062 0 21.7969 -0.203125
L21.7969 2.39062
C15.4062 2.39062 15 2.78125 15 6.67188
L15 40
L34.7969 40
L34.7969 6.67188
C34.7969 2.875 34.4062 2.39062 28 2.39062
L28 -0.203125
C30.4062 0 34.7969 0 37.2969 0
C39.9062 0 44.2969 0 46.7031 -0.203125
L46.7031 2.39062
C40.2969 2.39062 39.9062 2.78125 39.9062 6.67188
z

M14.7969 42.5781
L14.7969 54.2031
C14.7969 62.9375 21.4062 68 28.7031 68
C29.2031 68 34.7031 68 34.7031 67
C34.7031 66.8906 34.5938 66.7969 34.0938 66.2812
C33.2031 65.6875 32.7969 64.6562 32.7969 63.6562
C32.7969 62.2344 33.5 61.0312 34.7969 60.5156
L34.7969 42.5781
z
" id="CMR17-13"/>
      <path d="
M43.7969 68.1094
C43.7969 69.8906 43.7031 70 43.0938 70
C42.5 70 42.2969 69.5938 41.9062 68.7031
L38.9062 62.125
C35.0938 67.5469 29.2969 70 23 70
C12.7969 70 4.59375 61.9531 4.59375 51.7969
C4.59375 48.7344 5.29688 44.3438 8.70312 40.1719
C12.4062 35.6094 15.9062 34.8125 23.9062 32.7188
C26.9062 31.9219 31.9062 30.625 32.9062 30.2344
C38.5938 27.8438 41.5938 21.8906 41.5938 16.3125
C41.5938 9.14062 36.5 1.5 27.7969 1.5
C17.0938 1.5 7.09375 7.46875 6.40625 21.4062
C6.29688 23 6.20312 23.0938 5.5 23.0938
C4.70312 23.0938 4.59375 23 4.59375 21
L4.59375 0.890625
C4.59375 -0.890625 4.70312 -1 5.29688 -1
C6 -1 6.20312 -0.5 7.59375 2.59375
C7.70312 2.89062 7.70312 3.09375 9.59375 6.875
C14.5938 0.375 23 -1 27.7969 -1
C38.7031 -1 46.4062 8.04688 46.4062 18.5781
C46.4062 23.7344 44.5 27.7031 43.4062 29.5
C39.2031 35.8594 34.7031 37.0469 29.9062 38.2344
C29.2031 38.5469 29 38.5469 23.4062 39.9375
C18 41.3281 15.7031 42.0312 13.2031 44.7188
C10.4062 47.7969 9.40625 50.9844 9.40625 54.1719
C9.40625 60.6406 14.5938 67.7031 23.0938 67.7031
C33.7031 67.7031 40.2969 60.2344 41.7969 47.7969
C42.0938 46 42.2031 45.9062 42.9062 45.9062
C43.7969 45.9062 43.7969 46.2031 43.7969 47.8906
z
" id="CMR17-83"/>
      <path d="
M43.0938 21.1875
C43.0938 34 33.7969 44 22.9062 44
C12 44 2.70312 34 2.70312 21.1875
C2.70312 8.60938 12 -1 22.9062 -1
C33.7969 -1 43.0938 8.60938 43.0938 21.1875
M22.9062 0.796875
C18.2031 0.796875 14.2031 3.59375 11.9062 7.5
C9.40625 11.9844 9.09375 17.5938 9.09375 22
C9.09375 26.2031 9.29688 31.4062 11.9062 35.9062
C13.9062 39.2031 17.7969 42.4062 22.9062 42.4062
C27.4062 42.4062 31.2031 39.9062 33.5938 36.4062
C36.7031 31.7031 36.7031 25.1094 36.7031 22
C36.7031 18.0938 36.5 12.1094 33.7969 7.29688
C31 2.70312 26.7031 0.796875 22.9062 0.796875" id="CMR17-111"/>
     </defs>
     <g transform="translate(365.44 125.133699214)scale(0.08 -0.08)">
      <use transform="scale(0.996264009963)" xlink:href="#CMR17-49"/>
      <use transform="translate(45.6904771171 0.0)scale(0.996264009963)" xlink:href="#CMR17-76"/>
      <use transform="translate(103.071884972 0.0)scale(0.996264009963)" xlink:href="#CMR17-116"/>
      <use transform="translate(138.352652772 0.0)scale(0.996264009963)" xlink:href="#CMR17-111"/>
      <use transform="translate(184.043129889 0.0)scale(0.996264009963)" xlink:href="#CMR17-83"/>
      <use transform="translate(234.938499669 0.0)scale(0.996264009963)" xlink:href="#CMR17-13"/>
      <use transform="translate(284.680723045 0.0)scale(0.996264009963)" xlink:href="#CMR17-116"/>
      <use transform="translate(319.961490845 0.0)scale(0.996264009963)" xlink:href="#CMR17-114"/>
      <use transform="translate(355.242258644 0.0)scale(0.996264009963)" xlink:href="#CMR17-50"/>
      <use transform="translate(400.932735761 0.0)scale(0.996264009963)" xlink:href="#CMR17-48"/>
     </g>
    </g>
    <g id="patch_97">
     <path d="
M343.04 136.51
L359.04 136.51
L359.04 130.91
L343.04 130.91
z
" style="fill:#008000;stroke:#eeeeee;stroke-linejoin:miter;stroke-width:0.5;"/>
    </g>
    <g id="text_36">
     <!-- $\mathrm{3LtoSfltr5}$ -->
     <g transform="translate(365.44 136.509938463)scale(0.08 -0.08)">
      <use transform="scale(0.996264009963)" xlink:href="#CMR17-51"/>
      <use transform="translate(45.6904771171 0.0)scale(0.996264009963)" xlink:href="#CMR17-76"/>
      <use transform="translate(103.071884972 0.0)scale(0.996264009963)" xlink:href="#CMR17-116"/>
      <use transform="translate(138.352652772 0.0)scale(0.996264009963)" xlink:href="#CMR17-111"/>
      <use transform="translate(184.043129889 0.0)scale(0.996264009963)" xlink:href="#CMR17-83"/>
      <use transform="translate(234.938499669 0.0)scale(0.996264009963)" xlink:href="#CMR17-13"/>
      <use transform="translate(284.680723045 0.0)scale(0.996264009963)" xlink:href="#CMR17-116"/>
      <use transform="translate(319.961490845 0.0)scale(0.996264009963)" xlink:href="#CMR17-114"/>
      <use transform="translate(355.242258644 0.0)scale(0.996264009963)" xlink:href="#CMR17-53"/>
     </g>
    </g>
    <g id="patch_98">
     <path d="
M343.04 147.886
L359.04 147.886
L359.04 142.286
L343.04 142.286
z
" style="fill:#0000ff;stroke:#eeeeee;stroke-linejoin:miter;stroke-width:0.5;"/>
    </g>
    <g id="text_37">
     <!-- $\mathrm{4APSAL}$ -->
     <defs>
      <path d="
M36.2969 68.4062
C35.7969 69.7031 35.5938 70 34.5938 70
C33.5938 70 33.4062 69.7031 32.9062 68.4062
L11.7031 8.84375
C9.79688 3.48438 5.79688 2.39062 2.29688 2.39062
L2.29688 -0.203125
C4.09375 0 8.09375 0 10 0
C12.5 0 16.5 0 18.9062 -0.203125
L18.9062 2.39062
C14.2031 2.39062 13.5 5.64062 13.5 6.85938
C13.5 7.76562 13.7031 8.28125 13.9062 8.89062
L19.2031 24
L45.4062 24
L51.4062 6.90625
C51.9062 5.70312 51.9062 5.5 51.9062 5.10938
C51.9062 2.39062 47.5938 2.39062 45.7031 2.39062
L45.7031 0
C48.5938 0 53.7969 0 56.9062 0
C59.5 0 64.5 0 66.9062 -0.203125
L66.9062 2.39062
C61.5938 2.39062 59.7969 2.39062 58.5 6.04688
z

M32.2969 60.5312
L44.5 26.5938
L20.0938 26.5938
z
" id="CMR17-65"/>
      <path d="
M19.7969 31.9062
L35.7969 31.9062
C48.7031 31.9062 58.0938 40.2812 58.0938 49.75
C58.0938 59.2344 48.9062 68 35.7969 68
L5.20312 68
L5.20312 65.4062
C12.0938 65.4062 13.2031 65.4062 13.2031 60.9375
L13.2031 6.96875
C13.2031 2.5 12.0938 2.5 5.20312 2.5
L5.20312 0
C8.09375 0 13.4062 0 16.5 0
C19.5938 0 24.9062 0 27.7969 0
L27.7969 2.5
C20.9062 2.5 19.7969 2.5 19.7969 6.96875
z

M19.5938 34
L19.5938 61.5312
C19.5938 64.9219 19.7969 65.4062 23.7969 65.4062
L33.9062 65.4062
C46.7969 65.4062 50.5 58.0312 50.5 49.75
C50.5 40.6875 46.0938 34 33.9062 34
z
" id="CMR17-80"/>
     </defs>
     <g transform="translate(365.44 147.886177712)scale(0.08 -0.08)">
      <use transform="scale(0.996264009963)" xlink:href="#CMR17-52"/>
      <use transform="translate(45.6904771171 0.0)scale(0.996264009963)" xlink:href="#CMR17-65"/>
      <use transform="translate(114.762906921 0.0)scale(0.996264009963)" xlink:href="#CMR17-80"/>
      <use transform="translate(177.34920744 0.0)scale(0.996264009963)" xlink:href="#CMR17-83"/>
      <use transform="translate(228.24457722 0.0)scale(0.996264009963)" xlink:href="#CMR17-65"/>
      <use transform="translate(297.317007024 0.0)scale(0.996264009963)" xlink:href="#CMR17-76"/>
     </g>
    </g>
    <g id="patch_99">
     <path d="
M343.04 159.262
L359.04 159.262
L359.04 153.662
L343.04 153.662
z
" style="fill:#bfbf00;stroke:#eeeeee;stroke-linejoin:miter;stroke-width:0.5;"/>
    </g>
    <g id="text_38">
     <!-- $\mathrm{AVG}$ -->
     <defs>
      <path d="
M59 58.5156
C59.9062 60.7188 61.5 65 68.2031 65
L68.2031 67.6875
C65.9062 67.4844 63.2969 67.4844 60.7969 67.4844
C58.4062 67.4844 54.2969 67.4844 52 67.6875
L52 65
C57 65 57.2031 61.5 57.2031 60.9062
C57.2031 59.7969 56.9062 59.1094 56.5938 58.3125
L36.9062 6.96875
L16.2969 60.625
C16 61.3281 15.7969 61.8281 15.7969 62.3125
C15.7969 65 19.7969 65 21.9062 65
L21.9062 67.4844
C18.7031 67.4844 14 67.4844 10.7031 67.4844
C8.09375 67.4844 3.40625 67.4844 1 67.6875
L1 65
C6.79688 65 7.90625 64.6094 9.09375 61.4219
L32.9062 -0.40625
C33.4062 -1.79688 33.5 -2 34.5938 -2
C35.7031 -2 35.7969 -1.79688 36.2969 -0.40625
z
" id="CMR17-86"/>
     </defs>
     <g transform="translate(365.44 159.262416962)scale(0.08 -0.08)">
      <use transform="scale(0.996264009963)" xlink:href="#CMR17-65"/>
      <use transform="translate(58.6627204867 0.0)scale(0.996264009963)" xlink:href="#CMR17-86"/>
      <use transform="translate(125.132696358 0.0)scale(0.996264009963)" xlink:href="#CMR17-71"/>
     </g>
    </g>
   </g>
  </g>
 </g>
 <defs>
  <clipPath id="p7ff5b81e1d">
   <rect height="345.6" width="446.4" x="72.0" y="43.2"/>
  </clipPath>
 </defs>
</svg>
